<svg xmlns="http://www.w3.org/2000/svg" data-name="Layer 2" viewBox="0 0 313.25 121.88"><path d="M311.64 93.85c-.36-.54-.64-.91-.88-1.3-1.66-2.75-4.16-3.91-7.3-3.71-4.83.3-8.76 2.69-12.5 5.48-4.57 3.41-8.17 7.78-12.03 11.9-2.62 2.79-5.22 5.61-7.93 8.32-.92.92-2.06 1.66-3.2 2.3-4.55 2.57-9.08 1.65-12.05-2.65-1.11-1.62-1.65-3.63-2.42-5.48-.14-.32-.15-.7-.27-1.3-6 4.77-13.25 5.39-20.15 7.04-.04-.11-.09-.21-.13-.32.69-.33 1.39-.65 2.08-.98 5.7-2.69 11.4-5.39 17.1-8.08.87-.41 1.21-1.03 1.33-2 .63-4.75 2.41-9.14 4.41-13.45.21-.46.36-.95.63-1.64-14.68 6.23-29.37 10.62-45.37 7.21-.63 1.33-1.35 2.85-2.07 4.38-.21-.06-.42-.13-.63-.19.12-.93.07-1.93.4-2.77.64-1.64.45-2.7-1.08-3.88-2.25-1.74-2.81-4.45-2.95-7.47l-1.25 1.15c-3.29 3-6.87 5.58-11.12 7.01-3.65 1.23-7.27 1.14-10.46-1.33-1.87-1.45-2.74-3.57-3.41-5.77-1.2-3.91-1.3-7.96-1.47-11.99-.53-12.6-.97-25.21-1.47-37.81-.26-6.57-1.3-13.03-3.18-19.35-.2-.68-.26-1.49-.08-2.17.47-1.81 1.1-3.57 1.67-5.35.18.02.35.05.53.07 1.22 1.88 1.84 4 2.37 6.15 1.63 6.55 2.2 13.25 2.46 19.97.54 13.59.99 27.18 1.5 40.78.09 2.46.7 4.8 1.98 6.94 1.01 1.7 2.55 2.5 4.5 2.65 4.26.32 8.21-.82 11.87-2.84 2.51-1.39 4.84-3.13 7.26-4.7.25-.16.58-.21.88-.31.07.34.25.69.19 1-.69 4.12.23 5.86 4.28 7.88 1.09-1.96 2.17-3.93 3.29-5.89 2.66-4.65 5.13-9.45 8.79-13.41 1.83-1.98 3.87-3.88 6.13-5.31 4.79-3.04 11.18-2.1 15.8 1.98.71.63 1.36 1.32 2.01 2.01 3.47 3.7 3.2 7.93 1.24 12.07-1.17 2.48-3.08 4.61-4.59 6.8-.07.01.19.02.41-.07 3.27-1.27 6.54-2.52 9.78-3.86.34-.14.65-.8.64-1.22 0-3.77.23-7.51 1.48-11.1 1.12-3.23 2.23-6.48 4.81-8.94 1.66-1.58 4.08-2.21 5.86.44 1.67 2.49 2.36 5.3 2.45 8.19.11 3.6-.38 7.16-2.19 10.39-1.68 3.01-4.47 4.81-7.32 6.46-1.39.81-2.55 1.41-2.69 3.36-.11 1.47-1.19 2.85-1.68 4.32-.87 2.61-1.64 5.27-2.43 7.91-.11.38-.14.79-.2 1.19.11.08.22.16.33.23.95-1.1 1.98-2.14 2.83-3.31.72-.99 1.12-2.22 1.87-3.19.95-1.24 2.04-2.39 3.19-3.46.88-.82 1.97-.65 2.9.2 1.94 1.77 2.23 5.7.59 7.76-.69.88-1.53.71-2.34.34-.75-.34-1.46-.77-2.14-1.22-.67-.45-1.29-.99-2.04-1.57-.86 2.58-2.09 4.93-4.21 6.59-1.24.97-1.23 1.94-.82 3.21.92 2.88 3.42 4.44 6.45 3.91 3.9-.69 6.8-3.08 9.43-5.8 4.35-4.52 8.51-9.21 12.91-13.67 4.1-4.16 8.61-7.9 14.15-9.99 2.31-.87 4.85-1.26 7.32-1.55 1.93-.23 3.72.54 5.26 1.79 1.57 1.28 2.43 2.88 2.35 4.93-.08 2.08-.42 4.08-1.61 6.12Zm-63.27-15.84c1.16-1.32 1.21-1.83.08-3.22-1.87-2.3-4.19-4.07-6.86-5.37-4.34-2.11-8.48-1.72-12.34 1.16-6.07 4.52-9.59 10.98-13.35 17.71 1.71.28 3.16.62 4.61.74 6.51.54 12.48-1.36 18.18-4.28 3.53-1.81 7-3.72 9.68-6.75Zm10.6 2.46c.19 0 .33.04.42 0 2.86-1.61 5.76-3.18 8.55-4.9.56-.34 1.04-1.31 1.03-1.98-.05-2.22-.69-4.31-2.16-6.05-1.3-1.53-2.59-1.6-3.79.01-2.84 3.8-4.37 8.07-4.05 12.92m7.37 18.13c.1-1.32-.67-2.79-1.59-2.93-.59-.09-1.26.27-1.89.43v.52c1.13.64 2.26 1.29 3.49 1.99Zm10.5-26.45c-.38.15-.77.3-1.36.53.51-2.1 1.13-3.52 3.33-4.29 9.45-3.3 18.82-6.85 28.22-10.3.45-.16.91-.28 1.56-.48-.45 1.56-.87 2.68-2.45 3.28-9.79 3.69-19.54 7.5-29.31 11.26Zm-43.29-16.92c-.5.19-.99.38-1.73.66.52-2.05 1.07-3.88 3.23-4.23 9.46-3.3 18.83-6.85 28.23-10.3.49-.18.98-.33 1.65-.55-.42 1.73-1.06 2.8-2.75 3.43-9.57 3.58-19.09 7.31-28.63 10.99M225 57.02c-2.33-1.59-4.33-2.95-6.32-4.34-.17-.12-.33-.53-.26-.69.89-1.89 1.82-3.75 2.88-5.89 2.15 1.52 4.14 2.88 6.08 4.31.24.18.39.8.27 1.07-.81 1.82-1.71 3.6-2.65 5.54m-27.6-5.67c1.1.8 2.2 1.82 2.82 3 .99 1.91 1.59 4.03 2.34 6.02.04-.12.15-.4.21-.68.5-2.08.93-4.18 1.51-6.24.26-.93.73-1.84 1.26-2.66.83-1.3 1.82-1.69 2.76-1.27 1.12.5 2.09 2.19 1.89 3.34-.05.28-.14.56-.23.83-.41 1.14-.74 1.2-1.59.32-1.27-1.31-2.1-1.26-2.72.44-.69 1.88-1.1 3.87-1.61 5.82-.35 1.31-.62 2.65-1.02 3.94-.18.58-.6 1.09-1 1.78-.83-2.43-1.52-4.52-2.26-6.59-.25-.69-.59-1.36-.93-2.02-.37-.7-.62-1.27-1.75-.68-1.11.58-1.91-.61-2.67-1.32-.57-.54-.74-1.15-.27-1.87.32-.48.57-1 .88-1.49.71-1.14 1.32-1.43 2.4-.64Zm-9.41-11.47c-.26.1-.52.19-.92.33.38-2.24 1.28-3.54 3.46-4.3 9.37-3.28 18.66-6.79 27.98-10.21.46-.17.92-.31 1.41-.48-.04 1.68-.69 2.61-2.07 3.14-9.96 3.84-19.91 7.68-29.87 11.52Zm-6.12 68.6c1.76-1.94 3.73-3.72 5.77-5.37 1.52-1.23 3.38-1.91 5.43-1.64.95.12 1.62-.26 2.28-.92 1.15-1.17 2.35-2.32 3.64-3.35a6.5 6.5 0 0 1 2.4-1.2c1.76-.44 3.07.62 2.8 2.39-.19 1.24-.65 2.62-1.45 3.56-2.32 2.73-5.49 3.98-8.98 3.32-4.09-.78-7.18.76-9.97 3.36-1.93 1.8-3.75 3.72-5.62 5.58-1.71 1.69-3.87 2.35-6.24 2.6.76-.47 1.52-.94 2.28-1.4 3.02-1.8 5.35-4.34 7.68-6.92Zm21.11-9.02c-.7-1.14-1.67-1.26-2.58-1.05-2.06.46-3.43 1.93-4.76 3.44 2.76.07 5.14-.75 7.34-2.38Zm-35.49-87.78c-1.2-1.23-2.03-1.16-2.66.46-.6 1.53-.99 3.14-1.4 4.73-.49 1.95-.9 3.92-1.3 5.65 1.46 1.14 3.06 2.17 4.38 3.48 1.43 1.41.5 4.08-1.44 4.71-1.8.58-3.58 1.22-5.35 1.89-.84.31-.95.9-.68 1.78 1.84 6 2.87 12.11 2.1 18.41-.06.53-.2 1.05-.32 1.57-.02.1-.13.18-.31.42-.17-2.7-.18-5.22-.53-7.7-.53-3.71-1.3-7.38-1.98-11.07-.89-4.77.06-6.53 4.59-8.33-.57-.68-1.21-1.28-2.07-.75-.66.41-1.13 1.13-1.95 1.98.21-2.23.34-4.07 1.78-5.55.25-.26.45-.83.34-1.13q-1.335-3.585-2.82-7.11c-.27-.65-.58-1.17-1.58-.58-1.06.63-1.8-.43-2.51-1.07-.6-.54-1.09-1.17-.53-2.04.33-.52.61-1.07.94-1.6.75-1.19 1.25-1.46 2.39-.57 1.2.93 2.36 2.11 3.05 3.43.92 1.76 1.39 3.76 2.09 5.76.12-.58.21-1.16.36-1.72.61-2.31 1.22-4.61 1.86-6.91.07-.27.24-.52.4-.77.6-.94 1.2-2 2.5-1.94 1.29.05 1.89 1.11 2.35 2.13.53 1.18.03 2.21-.72 3.34-.39-.36-.69-.62-.97-.9ZM119.32 41.4c.47.14 1.26-.5 1.79-.94.44-.37.69-.96 1.13-1.41-.18 1.77-.55 3.47-1.59 4.94-.54.77-1.35 1.28-2.23.9-.67-.29-1.42-.92-1.67-1.57-.81-2.07-.41-4.22 0-6.33.57-2.97 1.73-5.71 3.49-8.22-.45 1.4-.93 2.79-1.33 4.2-.38 1.35-.74 2.7-.96 4.08-.14.88-.18 1.84.05 2.68.18.65.75 1.49 1.33 1.66Zm14.36 11.32c-.21-.15-.33-.75-.21-1.02.7-1.57 1.5-3.1 2.25-4.66.3-.64.71-.73 1.27-.34 1.7 1.16 3.42 2.28 5.06 3.5.32.24.61 1 .46 1.33-.78 1.83-1.7 3.6-2.62 5.48-2.25-1.54-4.26-2.88-6.22-4.29Zm7.28 35.71c-.41.9-1.24 1.44-2.33 1.26-1.07-.18-1.77-.89-1.83-1.9-.11-1.87-.21-3.78.04-5.63.43-3.12 1.67-5.99 3.54-8.6-.22.69-.48 1.36-.66 2.06-.59 2.27-1.21 4.53-1.68 6.82-.16.77-.03 1.65.18 2.43.4 1.53 1.72 1.83 2.78.65.51-.57.91-1.24 1.36-1.86.12.05.23.1.35.14-.57 1.55-1.05 3.13-1.73 4.62Zm8.46-75.7c-1.04 1.48-2.22 2.87-3.4 4.24-2.96 3.43-6.15 6.68-8.01 10.92-.12-.04-.25-.09-.37-.13.27-1.09.42-2.23.83-3.26 1.42-3.51 3.54-6.57 6.1-9.37 1.66-1.82 3.13-3.82 4.61-5.81.9-1.21.56-1.89-.95-2.23-2.35-.53-4.65-.08-6.82.71-5.69 2.07-11.4 4.14-16.97 6.52-9.03 3.85-17.9 8.07-26.35 13.09-2.3 1.37-4.47 2.95-6.69 4.45-.33.22-.6.52-1.09.95.9.44 1.62.81 2.35 1.15 1.87.87 3.75 1.71 5.61 2.61.7.34 1.38.75 2 1.22.24.18.43.62.41.92-.01.17-.5.43-.78.44-1.02.05-2.05.02-3.38.02.47.52.75.88 1.09 1.2 3.33 3.14 7.31 5.33 11.17 7.71 3.55 2.18 7.09 4.38 10.57 6.66 2.5 1.64 4.66 3.7 6.23 6.27 3.18 5.2 1.71 12.93-3.47 16.15-3.76 2.34-7.86 4.18-11.93 5.94-1.89.82-2.73 1.89-3.1 3.86-1.61 8.4 3.12 16.45 10.91 19.45 4.84 1.86 9.86 1.81 14.89.95 10.21-1.73 19.36-5.94 27.57-12.18 1.92-1.46 3.56-3.29 5.28-4.99.71-.7.75-1.54.29-2.48-1.48-2.99-2.94-5.98-4.3-9.03-.72-1.61-1.13-3.36-1.79-5-.53-1.31-1.27-2.54-1.85-3.83-.24-.54-.5-1.18-.42-1.73.26-1.79.68-3.56 1.03-5.34.17-.85.57-.95 1.16-.35 2.29 2.32 4.57 4.64 6.83 6.98.21.22.39.75.27.94-.15.24-.63.38-.96.36-.89-.06-1.78-.23-2.9-.39 1.03 2.09 1.94 4.01 2.9 5.91 1.44 2.85 2.72 5.78 2.87 9 .24 5.3-1.04 10.07-5.14 13.86-6.48 5.99-13.88 10.45-22.05 13.66-4.68 1.83-9.56 3.02-14.59 3.03-9.29.02-15.56-3.61-19.83-12.14-2.78-5.55-2.4-11.33-1.35-17.17.08-.44.16-.88.29-1.54-.94.41-1.7.78-2.48 1.08-7.36 2.77-13.07 7.71-18.1 13.59-1.82 2.13-3.73 4.2-5.78 6.09-2.13 1.97-4.69 3.08-7.7 2.66-3.65-.51-5.81-2.93-7.38-5.97-1.58-3.05-1.68-6.34-1.13-9.66.94-5.68 3.26-10.87 5.88-15.94.17-.33.46-.6.69-.9.1.05.21.1.31.15-.15.66-.24 1.34-.45 1.97-1.22 3.63-2.53 7.23-3.67 10.89-.85 2.72-1.45 5.52-.93 8.4.65 3.61 3.11 5.43 6.74 4.93 3.81-.52 6.67-2.71 9.15-5.46 1.6-1.78 3.12-3.62 4.62-5.48 4.17-5.17 9.58-8.64 15.53-11.36 6.15-2.8 12.34-5.53 18.49-8.34 1.38-.63 2.69-1.44 3.97-2.27 1.51-.97 1.63-1.82.3-3.06-1.44-1.35-2.97-2.63-4.6-3.73-5.72-3.84-11.52-7.55-17.24-11.38-4.31-2.89-8.16-6.28-11.31-10.44-.39-.52-1.15-.75-1.67-1.2-.36-.32-.87-.8-.84-1.18.23-3.03.5-6.07.92-9.08.26-1.86 1.37-3.28 2.89-4.44 5.33-4.03 11.22-7.09 17.19-9.99 10.39-5.04 20.88-9.9 31.95-13.31 2.35-.72 4.81-1.21 7.26-1.47 3.31-.35 4.45.9 4.21 4.25-.23 3.21-1.81 5.88-3.59 8.42ZM89.48 69.88c.51-.58.91-1.25 1.46-1.85-.3 1.78-.49 3.63-1.72 5.04-.46.53-1.47 1.01-2.09.87-.69-.15-1.63-.95-1.74-1.59-.29-1.68-.38-3.44-.19-5.13.38-3.39 1.67-6.5 3.66-9.32-.4 1.24-.85 2.47-1.18 3.72-.44 1.67-.88 3.35-1.15 5.05-.14.83-.03 1.74.18 2.56.39 1.53 1.73 1.82 2.77.65m-4.02-51.42c-.42.16-.84.32-1.27.48.08-2.14.91-3.32 2.75-3.99 9.56-3.5 19.11-7.01 28.66-10.52.42-.15.85-.28 1.55-.51-.46 1.63-.92 2.73-2.49 3.32-9.75 3.68-19.47 7.47-29.19 11.22ZM70.65 42.44c-.21.08-.42.17-.63.25-.32-.49-.57-1.03-.96-1.44-.7-.74-1.48-.64-1.9.25-.55 1.14-1.01 2.34-1.33 3.57-.57 2.15-.96 4.34-1.54 6.48-.19.72-.7 1.35-1.08 2.05-.99-2.73-1.87-5.19-2.78-7.64-.18-.5-.48-.96-.76-1.41-.29-.47-.59-.66-1.2-.28-1.17.72-1.89-.26-2.64-.92-.71-.62-1.13-1.32-.48-2.26.23-.34.4-.72.61-1.07.97-1.61 1.69-1.78 3.24-.64 1.82 1.33 2.72 3.27 3.4 5.32.38 1.16.64 2.37 1.02 3.77.62-2.54 1.12-4.87 1.77-7.16.29-1.01.8-1.98 1.34-2.89.55-.92 1.34-1.61 2.55-1.28.97.26 2.24 1.96 2.1 2.95-.12.8-.48 1.57-.73 2.35M58.12 59.21c.49 2.38-.05 4.63-.96 6.93-.38-.19-.64-.28-.86-.45-2.13-1.57-4.32-1.42-6.5-.17-3.94 2.27-5.34 5.91-5.24 10.22.02 1.03.67 2.05.97 2.89 2.76-.61 5.23-1.3 7.73-1.67 3.81-.56 6.31.92 7.73 4.46 1.27 3.16 1.42 6.44.41 9.69-1.4 4.49-5.13 5.98-9.28 3.71-3.07-1.68-5.15-4.32-6.78-7.35-.14-.25-.26-.52-.4-.77-.04-.07-.11-.12-.23-.25-3.4 1.35-6.61 3.13-9.52 5.35-5.37 4.1-10.63 8.36-15.9 12.58-2.07 1.66-4.2 3.2-6.79 3.95-3.38.98-6.27.15-8.71-2.33C.38 102.53-.43 98.26.21 93.64c.83-5.96 3.28-11.37 6.01-16.66.14-.28.39-.49.59-.74.12.04.24.07.36.11-.19.78-.32 1.58-.57 2.34-1.24 3.75-2.7 7.45-3.71 11.26-.62 2.35-.92 4.89-.76 7.3.25 3.74 2.92 5.66 6.65 5.3 2.97-.29 5.53-1.45 7.83-3.35 5.5-4.53 10.95-9.14 16.61-13.46 2.76-2.11 5.96-3.65 9.02-5.49-1.18-5.11-.34-10.15 1.94-14.96 1.29-2.74 2.94-5.26 5.48-7.05 1.78-1.26 3.75-1.68 5.88-1.25 1.24.25 2.29.86 2.57 2.2Zm-1.26 28.7c1.03-.19 1.31-.86.65-1.66-.3-.37-.73-.67-1.15-.91-1.82-1.02-3.74-.66-5.77-.38 1.39 2.17 4.03 3.37 6.27 2.95M16.67 84.1c-1.15-.15-1.72-.92-1.97-1.94-.62-2.56-.16-5.08.5-7.55.62-2.33 1.54-4.54 3.07-6.48-.31.96-.65 1.92-.92 2.89-.47 1.7-.96 3.41-1.3 5.14-.17.87-.19 1.84.04 2.69.18.66.73 1.5 1.3 1.7.45.15 1.27-.47 1.79-.92.47-.4.75-1.02 1.11-1.55.12.05.24.1.35.15-.55 1.52-1.02 3.08-1.67 4.56-.4.9-1.2 1.46-2.3 1.32ZM47.61 103c1.79 1.17 3.56 2.36 5.45 3.62.59-1.21 1.21-2.44 1.79-3.69.34-.74.77-.88 1.44-.41 1.62 1.13 3.25 2.25 4.89 3.35.71.48.84 1.08.46 1.81-.71 1.39-1.45 2.77-2.16 4.16-.39.76-.83.72-1.47.25-1.7-1.23-3.44-2.4-5.22-3.64-.87 1.63-1.64 3.07-2.49 4.67l-6.68-4.57c.89-1.83 1.77-3.63 2.65-5.43.38-.77.89-.41 1.32-.12Zm37.61 4.34c.5-.18 1.06-.2 1.6-.28-.32 1.64-1.21 2.59-2.88 3.22-9.68 3.63-19.31 7.4-28.95 11.13-.34.13-.68.26-1.24.48.61-1.85.86-3.41 3.04-4.18 9.52-3.34 18.97-6.9 28.44-10.37ZM95.66 95.7c.95-.49 2.11-.72 3.18-.74 1.2-.03 1.62.65 1.33 1.81-.18.74-.52 1.44-.87 2.4-1.73-1.89-3.23-.8-4.61.14-1.76 1.2-3.42 2.56-5.07 3.91-.3.25-.38.76-.57 1.15.37.16.74.48 1.09.46 2.38-.12 4.75-.3 7.12-.47 1.59-.12 3.2-.48 4.77-.34 3.1.27 4.43 2.38 3.66 5.4-.46 1.8-1.32 3.06-3.36 3.42-3.77.66-7.49 1.58-11.26 2.23-2.18.38-4.31.02-6.01-1.57-.66-.62-1.15-1.43-1.62-2.27 6.41 1.92 12.38-.47 18.47-1.4.89-.14 1.76-.38 2.71-.59-.52-1.28-1.58-1.61-2.62-1.66-1.72-.08-3.45-.01-5.17.1-2.22.15-4.42.58-6.63.55-1.12-.02-2.24-.76-3.35-1.18.19-.91.2-1.91.6-2.71 1.84-3.7 4.49-6.71 8.21-8.62Zm-8.81 11.35-.03-.03s.02 0 .03.01zm0 0h-.04v-.03l.03.03Zm137.19-2.11c-.41 1.67-.69 3.37-.95 5.07-.08.51-.02 1.12.2 1.57.27.54.71 1.25 1.2 1.37.47.12 1.2-.32 1.65-.7.51-.44.82-1.09 1.34-1.61-.28 1.94-.52 3.92-2.06 5.37-1.03.97-2.59.65-3.24-.62-.29-.57-.51-1.24-.55-1.88-.31-4.86 1.28-9.2 3.86-13.24-.49 1.55-1.06 3.09-1.45 4.67" data-name="Layer 1" style="fill:#b0f0ff;fill-rule:evenodd"/></svg>