<?xml version="1.0" encoding="UTF-8"?><svg id="Layer_2" xmlns="http://www.w3.org/2000/svg" width="1080" height="1080" xmlns:xlink="http://www.w3.org/1999/xlink" viewBox="0 0 1080 1080"><defs><pattern id="Motivo_nuevo_4" x="0" y="0" width="89" height="89" patternTransform="translate(-3224.7 4645.04)" patternUnits="userSpaceOnUse" viewBox="0 0 89 89"><rect width="89" height="89" style="fill:none;"/><path d="M54.63,123.73v-29.09c0-.18-.1-.34-.25-.43l-9.67-5.58c-.15-.09-.35-.09-.5,0l-9.66,5.58c-.15.09-.25.25-.25.43v29.09c0,.28.22.5.5.5h5.66c.13,0,.26-.05.35-.15l3.65-3.65,3.65,3.65c.09.09.22.15.35.15h5.67c.28,0,.5-.22.5-.5ZM44.81,119.37c-.09-.09-.22-.15-.35-.15h0c-.13,0-.26.05-.35.15l-3.86,3.86h-4.95v-28.3l9.16-5.29,9.17,5.29v28.3h-4.96l-3.86-3.86Z" style="fill:#155c6d;"/><path d="M54.13,124.48h-5.67c-.2,0-.39-.08-.53-.22l-3.48-3.48-3.48,3.48c-.14.14-.33.22-.53.22h-5.66c-.41,0-.75-.34-.75-.75v-29.09c0-.27.14-.52.38-.65l9.66-5.58c.23-.13.52-.14.75,0l9.67,5.58c.23.13.38.38.38.65v29.09c0,.41-.34.75-.75.75ZM44.46,120.08l3.83,3.83s.11.07.18.07h5.67c.14,0,.25-.11.25-.25v-29.09c0-.09-.05-.17-.12-.22l-9.67-5.58c-.08-.04-.17-.04-.25,0l-9.66,5.58c-.08.04-.12.13-.12.22v29.09c0,.14.11.25.25.25h5.66c.07,0,.13-.03.18-.07l3.83-3.83ZM53.88,123.48h-5.31l-3.93-3.93c-.09-.09-.26-.09-.35,0l-3.93,3.93h-5.3v-28.69l9.41-5.44,9.42,5.44v28.69ZM48.78,122.98h4.6v-27.91l-8.92-5.15-8.91,5.15v27.91h4.6l3.79-3.79c.28-.28.78-.28,1.06,0l3.79,3.79Z" style="fill:#155c6d;"/><path d="M75.83,102.37c-.18,0-.36-.1-.44-.27l-7.02-13.65c-.08-.15-.07-.33,0-.47l7.26-13.01c.13-.24.44-.33.68-.19.24.13.33.44.19.68l-7.13,12.77,6.9,13.41c.13.25.03.55-.22.67-.07.04-.15.06-.23.06Z" style="fill:#155c6d;"/><path d="M75.83,102.62c-.28,0-.54-.16-.67-.41l-7.02-13.65c-.12-.22-.11-.49.01-.71l7.26-13.01c.1-.17.26-.3.45-.36.19-.06.39-.03.57.07.36.2.49.66.29,1.02l-7.07,12.65,6.84,13.29c.09.18.11.38.05.57-.06.19-.19.35-.37.44-.11.06-.22.08-.34.08ZM76.07,74.96s-.05,0-.07,0c-.06.02-.12.06-.15.12l-7.26,13.01c-.04.07-.04.16,0,.23l7.02,13.65c.06.12.22.17.33.11.06-.03.11-.08.13-.15s.01-.13-.02-.19l-6.96-13.53.06-.12,7.13-12.77c.07-.12.02-.27-.1-.34-.04-.02-.08-.03-.12-.03Z" style="fill:#155c6d;"/><path d="M124.3,54.07v-5.67c0-.13-.05-.26-.15-.35l-3.65-3.65,3.65-3.65c.09-.09.15-.22.15-.35v-5.67c0-.28-.22-.5-.5-.5h-29.1c-.18,0-.34.1-.43.25l-5.58,9.67c-.09.15-.09.35,0,.5l5.58,9.67c.09.15.25.25.43.25h29.1c.28,0,.5-.22.5-.5ZM89.7,44.4l5.29-9.17h28.31v4.96l-3.86,3.86c-.2.2-.2.51,0,.71l3.86,3.86v4.96h-28.31l-5.29-9.17Z" style="fill:#155c6d;"/><path d="M123.8,54.82h-29.1c-.27,0-.52-.14-.65-.38l-5.58-9.67c-.13-.23-.13-.52,0-.75l5.58-9.67c.13-.23.38-.38.65-.38h29.1c.41,0,.75.34.75.75v5.67c0,.2-.08.39-.22.53l-3.48,3.48,3.48,3.48c.14.14.22.33.22.53v5.67c0,.41-.34.75-.75.75ZM94.7,34.48c-.09,0-.17.05-.22.12l-5.58,9.67c-.04.08-.04.17,0,.25l5.58,9.67c.04.08.13.12.22.12h29.1c.14,0,.25-.11.25-.25v-5.67c0-.07-.03-.13-.07-.18l-3.83-3.83,3.83-3.83s.07-.11.07-.18v-5.67c0-.14-.11-.25-.25-.25h-29.1ZM123.55,53.82h-28.7l-5.44-9.42,5.44-9.42h28.7v5.31l-3.93,3.93s-.07.11-.07.18.03.13.07.18l3.93,3.93v5.31ZM95.13,53.32h27.91v-4.6l-3.79-3.79c-.29-.29-.29-.77,0-1.06l3.79-3.79v-4.6h-27.91l-5.15,8.92,5.15,8.92Z" style="fill:#155c6d;"/><path d="M75.28,76.42c-.18,0-.35-.09-.44-.26-.13-.24-.04-.55.2-.68l13.34-7.29c.15-.08.33-.08.48,0l13.01,7.26c.24.13.33.44.19.68-.14.24-.44.33-.68.19l-12.76-7.13-13.1,7.16c-.08.04-.16.06-.24.06Z" style="fill:#155c6d;"/><path d="M75.28,76.67c-.27,0-.53-.15-.66-.39-.1-.18-.12-.38-.06-.57.06-.19.18-.35.36-.45l13.34-7.29c.23-.12.5-.12.73,0l13.01,7.26c.36.2.49.66.29,1.02-.2.36-.66.49-1.02.29l-12.64-7.06-12.98,7.09c-.11.06-.23.09-.36.09ZM88.62,68.37s-.08.01-.12.03l-13.34,7.29c-.12.07-.17.22-.1.34.07.12.22.16.34.1l13.22-7.23,12.89,7.19c.12.07.27.02.34-.1.07-.12.03-.27-.09-.34l-13.01-7.26s-.08-.03-.12-.03Z" style="fill:#155c6d;"/><path d="M54.63,34.73V5.64c0-.18-.1-.34-.25-.43L44.71-.37c-.15-.09-.35-.09-.5,0l-9.66,5.58c-.15.09-.25.25-.25.43v29.09c0,.28.22.5.5.5h5.66c.13,0,.26-.05.35-.15l3.65-3.65,3.65,3.65c.09.09.22.15.35.15h5.67c.28,0,.5-.22.5-.5ZM44.81,30.37c-.09-.09-.22-.15-.35-.15h0c-.13,0-.26.05-.35.15l-3.86,3.86h-4.95V5.93L44.46.64l9.17,5.29v28.3h-4.96l-3.86-3.86Z" style="fill:#155c6d;"/><path d="M54.13,35.48h-5.67c-.2,0-.39-.08-.53-.22l-3.48-3.48-3.48,3.48c-.14.14-.33.22-.53.22h-5.66c-.41,0-.75-.34-.75-.75V5.64c0-.27.14-.52.38-.65L44.09-.59c.23-.13.52-.14.75,0l9.67,5.58c.23.13.38.38.38.65v29.09c0,.41-.34.75-.75.75ZM44.46,31.08l3.83,3.83s.11.07.18.07h5.67c.14,0,.25-.11.25-.25V5.64c0-.09-.05-.17-.12-.22L44.59-.15c-.08-.04-.17-.04-.25,0l-9.66,5.58c-.08.04-.12.13-.12.22v29.09c0,.14.11.25.25.25h5.66c.07,0,.13-.03.18-.07l3.83-3.83ZM53.88,34.48h-5.31l-3.93-3.93c-.09-.09-.26-.09-.35,0l-3.93,3.93h-5.3V5.79L44.46.35l9.42,5.44v28.69ZM48.78,33.98h4.6V6.08L44.46.93l-8.91,5.15v27.91h4.6l3.79-3.79c.28-.28.78-.28,1.06,0l3.79,3.79Z" style="fill:#155c6d;"/><path d="M44.71,89.18l9.67-5.58c.15-.09.25-.25.25-.43v-29.09c0-.28-.22-.5-.5-.5h-5.67c-.13,0-.26.05-.35.15l-3.64,3.64-3.64-3.64c-.09-.09-.22-.15-.35-.15h-5.67c-.28,0-.5.22-.5.5v29.09c0,.18.1.34.25.43l9.66,5.58c.08.04.16.07.25.07s.17-.02.25-.07ZM35.3,54.57h4.96l3.85,3.85c.19.19.52.19.71,0l3.85-3.85h4.97v28.3l-9.17,5.29-9.16-5.29v-28.3Z" style="fill:#155c6d;"/><path d="M44.46,89.49c-.13,0-.26-.04-.38-.1l-9.66-5.58c-.23-.13-.38-.38-.38-.65v-29.09c0-.41.34-.75.75-.75h5.67c.2,0,.39.08.53.22l3.47,3.47,3.47-3.47c.14-.14.33-.22.53-.22h5.67c.41,0,.75.34.75.75v29.09c0,.27-.14.52-.38.65l-9.67,5.58c-.11.07-.24.1-.38.1ZM34.8,53.82c-.14,0-.25.11-.25.25v29.09c0,.09.05.17.12.22l9.66,5.58c.08.04.17.04.25,0h0s9.67-5.58,9.67-5.58c.08-.04.12-.13.12-.22v-29.09c0-.14-.11-.25-.25-.25h-5.67c-.07,0-.13.03-.18.07l-3.82,3.82-3.82-3.82s-.11-.07-.18-.07h-5.67ZM44.46,88.46l-9.41-5.44v-28.69h5.31l3.92,3.92c.09.09.26.09.35,0l3.92-3.92h5.32v28.69l-9.42,5.44ZM35.55,82.73l8.91,5.15,8.92-5.15v-27.9h-4.61l-3.78,3.78c-.27.27-.79.27-1.06,0l-3.78-3.78h-4.6v27.9Z" style="fill:#155c6d;"/><path d="M35.3,54.07v-5.67c0-.13-.05-.26-.15-.35l-3.65-3.65,3.65-3.65c.09-.09.15-.22.15-.35v-5.67c0-.28-.22-.5-.5-.5H5.7c-.18,0-.34.1-.43.25L-.31,44.15c-.09.15-.09.35,0,.5l5.58,9.67c.09.15.25.25.43.25h29.1c.28,0,.5-.22.5-.5ZM.7,44.4l5.29-9.17h28.31v4.96l-3.86,3.86c-.2.2-.2.51,0,.71l3.86,3.86v4.96H5.99L.7,44.4Z" style="fill:#155c6d;"/><path d="M34.8,54.82H5.7c-.27,0-.52-.14-.65-.38L-.53,44.78c-.13-.23-.13-.52,0-.75l5.58-9.67c.13-.23.38-.38.65-.38h29.1c.41,0,.75.34.75.75v5.67c0,.2-.08.39-.22.53l-3.48,3.48,3.48,3.48c.14.14.22.33.22.53v5.67c0,.41-.34.75-.75.75ZM5.7,34.48c-.09,0-.17.05-.22.12L-.1,44.28c-.04.08-.04.17,0,.25l5.58,9.67c.04.08.13.12.22.12h29.1c.14,0,.25-.11.25-.25v-5.67c0-.07-.03-.13-.07-.18l-3.83-3.83,3.83-3.83s.07-.11.07-.18v-5.67c0-.14-.11-.25-.25-.25H5.7ZM34.55,53.82H5.85L.41,44.4l5.44-9.42h28.7v5.31l-3.93,3.93s-.07.11-.07.18.03.13.07.18l3.93,3.93v5.31ZM6.13,53.32h27.91v-4.6l-3.79-3.79c-.29-.29-.29-.77,0-1.06l3.79-3.79v-4.6H6.13L.99,44.4l5.15,8.92Z" style="fill:#155c6d;"/><path d="M83.65,54.32l5.58-9.67c.09-.15.09-.35,0-.5l-5.58-9.67c-.09-.15-.25-.25-.43-.25h-29.09c-.28,0-.5.22-.5.5v5.67c0,.13.05.26.15.35l3.65,3.65-3.65,3.65c-.09.09-.15.22-.15.35v5.67c0,.28.22.5.5.5h29.09c.18,0,.34-.1.43-.25ZM54.63,48.62l3.86-3.86c.2-.2.2-.51,0-.71l-3.86-3.86v-4.96h28.3l5.29,9.17-5.29,9.17h-28.3v-4.96Z" style="fill:#155c6d;"/><path d="M83.22,54.82h-29.09c-.41,0-.75-.34-.75-.75v-5.67c0-.2.08-.39.22-.53l3.48-3.48-3.48-3.48c-.14-.14-.22-.33-.22-.53v-5.67c0-.41.34-.75.75-.75h29.09c.27,0,.52.14.65.38l5.58,9.67c.13.23.13.52,0,.75l-5.58,9.67c-.13.23-.38.38-.65.38ZM54.13,34.48c-.14,0-.25.11-.25.25v5.67c0,.07.03.13.07.18l3.83,3.83-3.83,3.83s-.07.11-.07.18v5.67c0,.14.11.25.25.25h29.09c.09,0,.17-.05.22-.12l5.58-9.67c.04-.08.04-.17,0-.25l-5.58-9.67c-.04-.08-.13-.12-.22-.12h-29.09ZM83.08,53.82h-28.69v-5.31l3.93-3.93s.07-.11.07-.18-.03-.13-.07-.18l-3.93-3.93v-5.31h28.69l5.44,9.42-5.44,9.42ZM54.88,53.32h27.9l5.15-8.92-5.15-8.92h-27.9v4.6l3.79,3.79c.29.29.29.77,0,1.06l-3.79,3.79v4.6Z" style="fill:#155c6d;"/><path d="M24.24,78.99l20.57-20.57c.09-.09.15-.22.15-.35s-.05-.26-.15-.35l-4-4c-.09-.09-.22-.15-.35-.15h-5.17v-5.17c0-.13-.05-.26-.15-.35l-4.01-4.01c-.2-.2-.51-.2-.71,0l-20.57,20.57c-.13.13-.18.31-.13.48l2.89,10.78c.05.17.18.31.35.35l10.78,2.89s.09.02.13.02c.13,0,.26-.05.35-.15ZM10.78,65.12l20.01-20.01,3.51,3.51v5.46c0,.28.22.5.5.5h5.46l3.5,3.5-20.01,20.01-10.22-2.74-2.74-10.23Z" style="fill:#155c6d;"/><path d="M23.89,79.39c-.06,0-.13,0-.19-.02l-10.79-2.89c-.26-.07-.46-.27-.53-.53l-2.89-10.78c-.07-.26,0-.53.19-.72l20.57-20.57c.29-.29.77-.29,1.06,0l4.01,4.01c.14.14.22.33.22.53v4.92h4.92c.2,0,.39.08.53.22l4,4c.14.14.22.33.22.53s-.08.39-.22.53l-20.57,20.57c-.14.14-.33.22-.53.22ZM30.79,44.15c-.06,0-.13.02-.18.07l-20.57,20.57c-.06.06-.09.16-.07.24l2.89,10.78c.02.09.09.15.18.18l10.78,2.89c.08.02.18,0,.24-.06l20.57-20.57s.07-.11.07-.18-.03-.13-.07-.18l-4-4s-.11-.07-.18-.07h-5.42v-5.42c0-.07-.03-.13-.07-.18l-4.01-4.01s-.11-.07-.18-.07ZM23.82,78.36l-10.5-2.81-2.81-10.5.1-.1,20.19-20.19,3.76,3.76v5.56c0,.14.11.25.25.25h5.56l3.75,3.75-20.29,20.29ZM13.72,75.14l9.95,2.66,19.73-19.73-3.25-3.25h-5.35c-.41,0-.75-.34-.75-.75v-5.35l-3.26-3.26-19.73,19.73,2.66,9.95Z" style="fill:#155c6d;"/><path d="M58.49,44.76l20.57-20.57c.13-.13.18-.31.13-.48l-2.89-10.78c-.05-.17-.18-.31-.35-.35l-10.79-2.89c-.17-.04-.36,0-.48.13l-20.57,20.57c-.2.2-.2.51,0,.71l4.01,4.01c.09.09.22.15.35.15h5.17v5.17c0,.13.05.26.15.35l4.01,4.01c.1.1.23.15.35.15s.26-.05.35-.15ZM54.63,34.73c0-.28-.22-.5-.5-.5h-5.46l-3.51-3.51,20.01-20.01,10.23,2.75,2.74,10.22-20.01,20.01-3.51-3.51v-5.46Z" style="fill:#155c6d;"/><path d="M58.14,45.15c-.2,0-.39-.08-.53-.22l-4.01-4.01c-.14-.14-.22-.33-.22-.53v-4.92h-4.92c-.2,0-.39-.08-.53-.22l-4.01-4.01c-.29-.29-.29-.77,0-1.06l20.57-20.57c.19-.18.46-.26.72-.2l10.8,2.9c.26.07.46.27.53.53l2.89,10.78c.07.26,0,.53-.19.72l-20.57,20.57c-.14.14-.33.22-.53.22ZM65.03,9.91c-.07,0-.13.02-.18.07l-20.57,20.57c-.1.1-.1.26,0,.35l4.01,4.01s.11.07.18.07h5.42v5.42c0,.07.03.13.07.18l4.01,4.01c.09.09.26.09.35,0l20.57-20.57c.06-.06.09-.16.07-.24l-2.89-10.78c-.02-.09-.09-.15-.18-.18l-10.79-2.89s-.04,0-.06,0ZM58.14,44.05l-3.76-3.76v-5.56c0-.14-.11-.25-.25-.25h-5.56l-3.76-3.76,20.29-20.29,10.51,2.82,2.81,10.5-.1.1-20.19,20.19ZM54.88,40.09l3.26,3.26,19.73-19.73-2.66-9.95-9.96-2.67-19.73,19.73,3.26,3.26h5.35c.41,0,.75.34.75.75v5.35Z" style="fill:#155c6d;"/><path d="M45.09,52.79l1.99-1.99h2.82c.46,0,.84-.38.84-.84v-2.82l1.99-1.99c.33-.33.33-.86,0-1.19l-1.99-1.99v-2.82c0-.46-.38-.84-.84-.84h-2.82l-1.99-1.99c-.16-.16-.37-.25-.59-.25h0c-.22,0-.44.09-.59.25l-1.99,1.99h-2.81c-.46,0-.84.38-.84.84v2.82l-1.99,1.99c-.33.33-.33.86,0,1.19l1.99,1.99v2.82c0,.46.38.84.84.84h2.82l1.99,1.99c.16.16.37.25.59.25s.44-.09.59-.25ZM39.94,46.8c0-.22-.09-.44-.25-.59l-1.65-1.65,1.65-1.65c.16-.16.25-.37.25-.59v-2.33h2.32c.22,0,.44-.09.59-.25l1.65-1.65,1.65,1.65c.16.16.37.25.59.25h2.33v2.33c0,.22.09.44.25.59l1.65,1.65-1.65,1.65c-.16.16-.25.37-.25.59v2.33h-2.33c-.22,0-.44.09-.59.25l-1.64,1.64-1.64-1.64c-.16-.16-.37-.25-.59-.25h-2.33v-2.33Z" style="fill:#155c6d;"/><path d="M31.15,44.76l4.01-4.01c.09-.09.15-.22.15-.35v-5.17h5.16c.13,0,.26-.05.35-.15l4.01-4.01c.09-.09.15-.22.15-.35s-.05-.26-.15-.35L24.24,9.8c-.13-.13-.31-.18-.48-.13l-10.78,2.89c-.17.05-.31.18-.35.35l-2.89,10.78c-.05.17,0,.36.13.48l20.57,20.57c.1.1.23.15.35.15s.26-.05.35-.15ZM13.52,13.46l10.22-2.75,20.01,20.01-3.51,3.51h-5.45c-.28,0-.5.22-.5.5v5.46l-3.51,3.51L10.78,23.68l2.74-10.22Z" style="fill:#155c6d;"/><path d="M30.79,45.15c-.2,0-.39-.08-.53-.22L9.69,24.36c-.19-.19-.26-.47-.19-.72l2.89-10.78c.07-.26.27-.46.53-.53l10.78-2.89c.25-.07.53,0,.72.19l20.57,20.57c.14.14.22.33.22.53s-.08.39-.22.53l-4.01,4.01c-.14.14-.33.22-.53.22h-4.91v4.92c0,.2-.08.39-.22.53l-4.01,4.01c-.14.14-.33.22-.53.22ZM23.89,9.91s-.04,0-.06,0l-10.78,2.89c-.09.02-.15.09-.18.18l-2.89,10.78c-.02.09,0,.18.07.24l20.57,20.57c.09.09.26.09.35,0l4.01-4.01s.07-.11.07-.18v-5.42h5.41c.07,0,.13-.03.18-.07l4.01-4.01s.07-.11.07-.18-.03-.13-.07-.18L24.07,9.98s-.11-.07-.18-.07ZM30.79,44.05L10.5,23.76l.04-.14,2.77-10.36,10.5-2.82.1.1,20.19,20.19-3.76,3.76h-5.55c-.14,0-.25.11-.25.25v5.56l-3.76,3.76ZM11.06,23.61l19.73,19.73,3.26-3.26v-5.35c0-.41.34-.75.75-.75h5.35l3.26-3.26L23.67,10.99l-9.95,2.67-2.66,9.95Z" style="fill:#155c6d;"/><path d="M65.16,79.12l10.79-2.89c.17-.05.31-.18.35-.35l2.89-10.78c.05-.17,0-.36-.13-.48l-20.57-20.57c-.2-.2-.51-.2-.71,0l-4.01,4.01c-.09.09-.15.22-.15.35v5.17h-5.17c-.13,0-.26.05-.35.15l-4,4c-.2.2-.2.51,0,.71l20.57,20.57c.09.09.22.15.35.15.04,0,.09,0,.13-.02ZM48.66,54.57h5.47c.28,0,.5-.22.5-.5v-5.46l3.51-3.51,20.01,20.01-2.74,10.23-10.23,2.74-20.01-20.01,3.5-3.5Z" style="fill:#155c6d;"/><path d="M65.03,79.39c-.2,0-.39-.08-.53-.22l-20.57-20.57c-.29-.29-.29-.77,0-1.06l4-4c.14-.14.33-.22.53-.22h4.92v-4.92c0-.2.08-.39.22-.53l4.01-4.01c.29-.29.77-.29,1.06,0l20.57,20.57c.19.19.26.47.19.72l-2.89,10.78c-.07.26-.27.46-.53.53l-10.79,2.89c-.06.02-.13.02-.19.02ZM48.46,53.82c-.07,0-.13.03-.18.07l-4,4c-.1.1-.1.26,0,.35l20.57,20.57c.06.06.15.09.24.06l10.79-2.89c.09-.02.15-.09.18-.18l2.89-10.78c.02-.09,0-.18-.07-.24l-20.57-20.57c-.1-.1-.26-.1-.35,0l-4.01,4.01s-.07.11-.07.18v5.42h-5.42ZM65.1,78.36l-.1-.1-20.19-20.19,3.75-3.75h5.57c.14,0,.25-.11.25-.25v-5.56l3.76-3.76,20.29,20.29-2.81,10.5-10.51,2.81ZM45.52,58.07l19.73,19.73,9.95-2.66,2.66-9.95-19.73-19.73-3.26,3.26v5.35c0,.41-.34.75-.75.75h-5.36l-3.25,3.25Z" style="fill:#155c6d;"/><path d="M-13.72,76.42c-.18,0-.35-.09-.44-.26-.13-.24-.04-.55.2-.68l13.34-7.29c.15-.08.33-.08.48,0l13.01,7.26c.24.13.33.44.19.68-.14.24-.44.33-.68.19L-.38,69.19l-13.1,7.16c-.08.04-.16.06-.24.06Z" style="fill:#155c6d;"/><path d="M-13.72,76.67c-.27,0-.53-.15-.66-.39-.1-.18-.12-.38-.06-.57.06-.19.18-.35.36-.45l13.34-7.29c.23-.12.5-.12.73,0l13.01,7.26c.36.2.49.66.29,1.02-.2.36-.66.49-1.02.29L-.39,69.48l-12.98,7.09c-.11.06-.23.09-.36.09ZM-.38,68.37s-.08.01-.12.03l-13.34,7.29c-.12.07-.17.22-.1.34.07.12.22.16.34.1L-.38,68.91l12.89,7.19c.12.07.27.02.34-.1.07-.12.03-.27-.09-.34L-.26,68.4s-.08-.03-.12-.03Z" style="fill:#155c6d;"/><path d="M12.96,103.29c-.08,0-.16-.02-.23-.06-.24-.13-.34-.43-.21-.67l6.81-12.99-6.9-13.42c-.13-.25-.03-.55.22-.67.25-.13.55-.03.67.22l7.02,13.65c.08.14.07.32,0,.46l-6.93,13.22c-.09.17-.26.27-.44.27Z" style="fill:#155c6d;"/><path d="M12.95,103.54c-.12,0-.24-.03-.35-.08-.37-.19-.51-.65-.31-1.01l6.75-12.88-6.84-13.3c-.09-.18-.11-.38-.05-.57.06-.19.19-.35.37-.44.18-.09.38-.11.57-.05.19.06.35.19.44.37l7.02,13.65c.11.22.11.48,0,.69l-6.93,13.22c-.13.25-.39.4-.67.4ZM12.87,75.67s-.08,0-.12.03c-.06.03-.1.08-.12.15-.02.06-.01.13.02.19l6.96,13.53-.06.12-6.81,12.99c-.07.12-.02.27.1.34.11.06.27.01.34-.11l6.93-13.22c.04-.07.04-.16,0-.23l-7.02-13.65c-.03-.06-.08-.1-.15-.12-.03,0-.05-.01-.08-.01Z" style="fill:#155c6d;"/><path d="M89.07,20.66c-.08,0-.17-.02-.24-.06l-13.01-7.26c-.24-.13-.33-.44-.19-.68.13-.24.44-.33.68-.19l12.77,7.13,13.41-6.9c.25-.12.55-.03.67.22.13.25.03.55-.22.67l-13.65,7.02c-.07.04-.15.06-.23.06Z" style="fill:#155c6d;"/><path d="M89.07,20.91c-.13,0-.25-.03-.37-.1l-13.01-7.26c-.36-.2-.49-.66-.29-1.02.1-.17.26-.3.45-.36.2-.05.4-.03.57.07l12.65,7.07,13.29-6.84c.37-.19.82-.04,1.01.33.09.18.11.38.05.57-.06.19-.19.35-.37.44l-13.65,7.02c-.1.05-.22.08-.34.08ZM76.07,12.65s-.05,0-.07,0c-.06.02-.12.06-.15.12-.07.12-.03.27.09.34l13.01,7.26c.07.04.17.04.24,0l13.65-7.02c.06-.03.1-.08.12-.15.02-.06.01-.13-.02-.19-.06-.12-.22-.17-.34-.11l-13.53,6.96-12.89-7.2s-.08-.03-.12-.03Z" style="fill:#155c6d;"/><path d="M75.83,13.37c-.18,0-.36-.1-.44-.27l-7.02-13.65c-.08-.15-.07-.33,0-.47l7.26-13.01c.13-.24.44-.33.68-.19.24.13.33.44.19.68l-7.13,12.77,6.9,13.41c.13.25.03.55-.22.67-.07.04-.15.06-.23.06Z" style="fill:#155c6d;"/><path d="M75.83,13.62c-.28,0-.54-.16-.67-.41L68.14-.44c-.12-.22-.11-.49.01-.71l7.26-13.01c.1-.17.26-.3.45-.36.19-.06.39-.03.57.07.36.2.49.66.29,1.02l-7.07,12.65,6.84,13.29c.09.18.11.38.05.57-.06.19-.19.35-.37.44-.11.06-.22.08-.34.08ZM76.07-14.04s-.05,0-.07,0c-.06.02-.12.06-.15.12l-7.26,13.01c-.04.07-.04.16,0,.23l7.02,13.65c.06.12.22.17.33.11.06-.03.11-.08.13-.15s.01-.13-.02-.19l-6.96-13.53.06-.12,7.13-12.77c.07-.12.02-.27-.1-.34-.04-.02-.08-.03-.12-.03Z" style="fill:#155c6d;"/><path d="M-5.35,54.32L.23,44.65c.09-.15.09-.35,0-.5l-5.58-9.67c-.09-.15-.25-.25-.43-.25h-29.09c-.28,0-.5.22-.5.5v5.67c0,.13.05.26.15.35l3.65,3.65-3.65,3.65c-.09.09-.15.22-.15.35v5.67c0,.28.22.5.5.5H-5.78c.18,0,.34-.1.43-.25ZM-34.37,48.62l3.86-3.86c.2-.2.2-.51,0-.71l-3.86-3.86v-4.96H-6.07L-.78,44.4l-5.29,9.17h-28.3v-4.96Z" style="fill:#155c6d;"/><path d="M-5.78,54.82h-29.09c-.41,0-.75-.34-.75-.75v-5.67c0-.2.08-.39.22-.53l3.48-3.48-3.48-3.48c-.14-.14-.22-.33-.22-.53v-5.67c0-.41.34-.75.75-.75H-5.78c.27,0,.52.14.65.38L.45,44.03c.13.23.13.52,0,.75l-5.58,9.67c-.13.23-.38.38-.65.38ZM-34.87,34.48c-.14,0-.25.11-.25.25v5.67c0,.07.03.13.07.18l3.83,3.83-3.83,3.83s-.07.11-.07.18v5.67c0,.14.11.25.25.25H-5.78c.09,0,.17-.05.22-.12L.02,44.53c.04-.08.04-.17,0-.25l-5.58-9.67c-.04-.08-.13-.12-.22-.12h-29.09ZM-5.92,53.82h-28.69v-5.31l3.93-3.93s.07-.11.07-.18-.03-.13-.07-.18l-3.93-3.93v-5.31H-5.92L-.49,44.4l-5.44,9.42ZM-34.12,53.32H-6.21l5.15-8.92-5.15-8.92h-27.9v4.6l3.79,3.79c.29.29.29.77,0,1.06l-3.79,3.79v4.6Z" style="fill:#155c6d;"/><path d="M.07,20.66c-.08,0-.17-.02-.24-.06l-13.01-7.26c-.24-.13-.33-.44-.19-.68.13-.24.44-.33.68-.19L.08,19.59l13.41-6.9c.25-.12.55-.03.67.22.13.25.03.55-.22.67L.3,20.6c-.07.04-.15.06-.23.06Z" style="fill:#155c6d;"/><path d="M.07,20.91c-.13,0-.25-.03-.37-.1l-13.01-7.26c-.36-.2-.49-.66-.29-1.02.1-.17.26-.3.45-.36.2-.05.4-.03.57.07L.09,19.31l13.29-6.84c.37-.19.82-.04,1.01.33.09.18.11.38.05.57-.06.19-.19.35-.37.44L.42,20.83c-.1.05-.22.08-.34.08ZM-12.93,12.65s-.05,0-.07,0c-.06.02-.12.06-.15.12-.07.12-.03.27.09.34L-.05,20.38c.07.04.17.04.24,0l13.65-7.02c.06-.03.1-.08.12-.15.02-.06.01-.13-.02-.19-.06-.12-.22-.17-.34-.11L.08,19.88l-12.89-7.2s-.08-.03-.12-.03Z" style="fill:#155c6d;"/><path d="M44.71.18l9.67-5.58c.15-.09.25-.25.25-.43v-29.09c0-.28-.22-.5-.5-.5h-5.67c-.13,0-.26.05-.35.15l-3.64,3.64-3.64-3.64c-.09-.09-.22-.15-.35-.15h-5.67c-.28,0-.5.22-.5.5V-5.84c0,.18.1.34.25.43L44.21.18c.08.04.16.07.25.07s.17-.02.25-.07ZM35.3-34.43h4.96l3.85,3.85c.19.19.52.19.71,0l3.85-3.85h4.97V-6.13L44.46-.83l-9.16-5.29v-28.3Z" style="fill:#155c6d;"/><path d="M44.46.49c-.13,0-.26-.04-.38-.1l-9.66-5.58c-.23-.13-.38-.38-.38-.65v-29.09c0-.41.34-.75.75-.75h5.67c.2,0,.39.08.53.22l3.47,3.47,3.47-3.47c.14-.14.33-.22.53-.22h5.67c.41,0,.75.34.75.75V-5.84c0,.27-.14.52-.38.65L44.84.39c-.11.07-.24.1-.38.1ZM34.8-35.18c-.14,0-.25.11-.25.25V-5.84c0,.09.05.17.12.22L44.34-.04c.08.04.17.04.25,0h0s9.67-5.58,9.67-5.58c.08-.04.12-.13.12-.22v-29.09c0-.14-.11-.25-.25-.25h-5.67c-.07,0-.13.03-.18.07l-3.82,3.82-3.82-3.82s-.11-.07-.18-.07h-5.67ZM44.46-.54l-9.41-5.44v-28.69h5.31l3.92,3.92c.09.09.26.09.35,0l3.92-3.92h5.32V-5.98L44.46-.54ZM35.55-6.27l8.91,5.15,8.92-5.15v-27.9h-4.61l-3.78,3.78c-.27.27-.79.27-1.06,0l-3.78-3.78h-4.6V-6.27Z" style="fill:#155c6d;"/><path d="M12.96,14.29c-.08,0-.16-.02-.23-.06-.24-.13-.34-.43-.21-.67L19.32.56l-6.9-13.42c-.13-.25-.03-.55.22-.67.25-.13.55-.03.67.22L20.33.34c.08.14.07.32,0,.46l-6.93,13.22c-.09.17-.26.27-.44.27Z" style="fill:#155c6d;"/><path d="M12.95,14.54c-.12,0-.24-.03-.35-.08-.37-.19-.51-.65-.31-1.01L19.04.56l-6.84-13.3c-.09-.18-.11-.38-.05-.57.06-.19.19-.35.37-.44.18-.09.38-.11.57-.05.19.06.35.19.44.37L20.55.22c.11.22.11.48,0,.69l-6.93,13.22c-.13.25-.39.4-.67.4ZM12.87-13.33s-.08,0-.12.03c-.06.03-.1.08-.12.15-.02.06-.01.13.02.19L19.61.56l-.06.12-6.81,12.99c-.07.12-.02.27.1.34.11.06.27.01.34-.11L20.11.68c.04-.07.04-.16,0-.23l-7.02-13.65c-.03-.06-.08-.1-.15-.12-.03,0-.05-.01-.08-.01Z" style="fill:#155c6d;"/></pattern></defs><g id="Layer_1-2"><rect width="1080" height="1080" style="fill:url(#Motivo_nuevo_4); fill-opacity:.56; opacity:.49;"/></g></svg>