<svg xmlns="http://www.w3.org/2000/svg" version="1.1" xmlns:xlink="http://www.w3.org/1999/xlink" width="1087.76" height="1688.5"><svg xmlns="http://www.w3.org/2000/svg" version="1.1" xmlns:xlink="http://www.w3.org/1999/xlink" width="1087.76" height="1688.5"><svg id="Layer_2" data-name="Layer 2" xmlns="http://www.w3.org/2000/svg" xmlns:xlink="http://www.w3.org/1999/xlink" viewBox="0 0 1087.76 1688.5">
  <defs>
    <style>
      .cls-1 {
        fill: #010101;
      }

      .cls-2 {
        fill: url(#linear-gradient-2);
      }

      .cls-3 {
        fill: #146432;
      }

      .cls-4 {
        fill: url(#linear-gradient-10);
      }

      .cls-5 {
        fill: url(#linear-gradient-12);
      }

      .cls-6, .cls-7, .cls-8 {
        isolation: isolate;
      }

      .cls-6, .cls-9 {
        fill: #273896;
      }

      .cls-10 {
        fill: #293392;
      }

      .cls-11 {
        fill: #fff;
      }

      .cls-12, .cls-8 {
        fill: #ddd7d7;
      }

      .cls-13 {
        fill: none;
      }

      .cls-14 {
        fill: url(#linear-gradient-4);
      }

      .cls-15 {
        fill: #20409b;
      }

      .cls-16 {
        fill: #168cb4;
      }

      .cls-17 {
        fill: url(#linear-gradient-3);
      }

      .cls-18 {
        fill: #fffe00;
      }

      .cls-19 {
        clip-path: url(#clippath-1);
      }

      .cls-20 {
        fill: url(#linear-gradient-5);
      }

      .cls-21 {
        fill: #006837;
        opacity: .34;
      }

      .cls-22 {
        fill: #1f419b;
      }

      .cls-23 {
        fill: url(#linear-gradient-8);
      }

      .cls-24 {
        fill: #1a93aa;
      }

      .cls-25 {
        fill: #e2eced;
      }

      .cls-26 {
        fill: url(#linear-gradient-7);
      }

      .cls-27 {
        fill: #b6480e;
      }

      .cls-28 {
        fill: url(#linear-gradient-9);
      }

      .cls-29 {
        fill: url(#linear-gradient-11);
      }

      .cls-30 {
        fill: url(#linear-gradient-6);
      }

      .cls-31 {
        fill: #0089cb;
      }

      .cls-32 {
        clip-path: url(#clippath-2);
      }

      .cls-33 {
        fill: url(#linear-gradient);
      }

      .cls-34 {
        clip-path: url(#clippath);
      }

      .cls-35 {
        fill: #156bb5;
      }

      .cls-36 {
        fill: #b93325;
      }

      .cls-37 {
        fill: #ff0;
      }
    </style>
    <linearGradient id="linear-gradient" x1="725.09" y1="564.41" x2="725.09" y2="894.18" gradientUnits="userSpaceOnUse">
      <stop offset="0" stop-color="#fa5707"></stop>
      <stop offset="1" stop-color="#fac821"></stop>
    </linearGradient>
    <linearGradient id="linear-gradient-2" x1="726.22" y1="526.51" x2="726.22" y2="564.41" xlink:href="#linear-gradient"></linearGradient>
    <clipPath id="clippath">
      <path class="cls-13" d="M405.54,1049.99v171.36l1,1h117.32l1-1v-80.23c-46.97-20.74-87.67-52.26-119.32-91.13Z"></path>
    </clipPath>
    <linearGradient id="linear-gradient-3" x1="465.84" y1="448.71" x2="465.84" y2="590.2" xlink:href="#linear-gradient"></linearGradient>
    <linearGradient id="linear-gradient-4" x1="466.33" y1="432.45" x2="466.33" y2="448.71" xlink:href="#linear-gradient"></linearGradient>
    <linearGradient id="linear-gradient-5" x1="408.05" y1="511.32" x2="523.64" y2="511.32" xlink:href="#linear-gradient"></linearGradient>
    <linearGradient id="linear-gradient-6" x1="408.05" y1="511.32" x2="523.64" y2="511.32" xlink:href="#linear-gradient"></linearGradient>
    <clipPath id="clippath-1">
      <path class="cls-37" d="M620.75,1166.69c-176.6-18.85-304.48-177.28-285.63-353.88,18.61-174.39,173.36-301.26,347.29-286.25-29.83-10.74-61.39-18.15-94.32-21.67-221.73-23.66-420.66,136.9-444.32,358.63-23.66,221.73,136.9,420.66,358.63,444.32,204.72,21.85,389.99-113.36,435.84-308.75-60.06,111.76-183.54,181.89-317.49,167.59Z"></path>
    </clipPath>
    <linearGradient id="linear-gradient-7" x1="481.46" y1="-280.6" x2="546.02" y2="526.8" gradientTransform="translate(45.1 659.12) rotate(6.09)" gradientUnits="userSpaceOnUse">
      <stop offset="0" stop-color="#0ab537"></stop>
      <stop offset="1" stop-color="#d3e909"></stop>
    </linearGradient>
    <linearGradient id="linear-gradient-8" x1="779.23" y1="-107.73" x2="337.79" y2="461.72" gradientTransform="translate(756.16 301.53) rotate(90)" xlink:href="#linear-gradient-7"></linearGradient>
    <clipPath id="clippath-2">
      <path class="cls-13" d="M386.35,428.55v794.81h157.42V428.55h-157.42ZM524.86,1221.36l-1,1h-117.32l-1-1v-171.36c31.66,38.87,72.36,70.39,119.32,91.13v80.23Z"></path>
    </clipPath>
    <linearGradient id="linear-gradient-9" x1="465.84" y1="448.71" x2="465.84" y2="590.2" xlink:href="#linear-gradient"></linearGradient>
    <linearGradient id="linear-gradient-10" x1="466.33" y1="432.45" x2="466.33" y2="448.71" xlink:href="#linear-gradient"></linearGradient>
    <linearGradient id="linear-gradient-11" x1="408.05" y1="511.32" x2="523.64" y2="511.32" xlink:href="#linear-gradient"></linearGradient>
    <linearGradient id="linear-gradient-12" x1="408.05" y1="511.32" x2="523.64" y2="511.32" xlink:href="#linear-gradient"></linearGradient>
  </defs>
  <g id="Layer_1-2" data-name="Layer 1">
    <g>
      <g id="outer">
        <g>
          <path d="M562.86,1688.5c-6.23,0-12.62-.07-18.99-.22-6.37.14-12.76.22-18.98.22-83.2,0-154.37-13.31-211.53-39.57-17.96-8.24-32.02-23.21-39.32-41.35-37.6-7.43-68.67-25.11-92.51-52.68-22.27-25.75-36.97-59.55-43.77-100.59-65.42-30.88-105.63-77.43-119.58-138.5-13.45-58.89.03-119.83,13.07-178.77,14.51-65.57,28.22-127.5,3.04-173.95l-10.16-18.73c-2.68-4.95-3.04-10.83-.97-16.06l7.84-19.81c28.16-71.16,10.46-132.36-8.27-197.15-16.05-55.52-31.21-107.95-17.24-164.59,13.5-54.77,51.78-99.15,116.89-135.42,4.47-41.49,18.6-76.31,42.08-103.61,23.41-27.23,55.09-45.83,94.28-55.4,31.18-84.63,101.14-110.43,152.76-129.48,33.86-12.49,63.1-23.28,85.36-46.86.15-.16.3-.32.46-.47,13.02-12.88,22.16-32.63,27.94-60.38,1.84-8.83,9.63-15.14,18.61-15.14.14,0,.29,0,.43,0,9.17.21,16.88,6.92,18.34,15.98,3.78,23.38,13.07,43.06,28.4,60.17,22.24,23.47,51.42,34.24,85.19,46.69,51.64,19.05,121.6,44.85,152.78,129.48,39.19,9.57,70.87,28.17,94.28,55.4,23.47,27.3,37.6,62.12,42.08,103.61,65.11,36.27,103.39,80.65,116.89,135.42,13.96,56.64-1.19,109.07-17.24,164.58-18.74,64.81-36.43,126.01-8.27,197.16l7.84,19.81c2.07,5.23,1.71,11.11-.97,16.06l-10.16,18.73c-25.18,46.44-11.48,108.38,3.03,173.94,13.04,58.94,26.53,119.88,13.08,178.77-13.95,61.07-54.16,107.62-119.58,138.5-6.81,41.04-21.51,74.84-43.77,100.59-23.84,27.57-54.92,45.26-92.52,52.68-7.31,18.15-21.38,33.13-39.35,41.37-57.13,26.24-128.29,39.55-211.49,39.55Z"></path>
          <path class="cls-11" d="M562.86,1669.49c-6.26,0-12.59-.07-18.99-.22-6.4.15-12.72.22-18.98.22-80.43,0-148.94-12.73-203.6-37.84-16.57-7.6-28.74-22.83-32.53-40.74-.01-.06-.02-.12-.04-.17-38.39-5.18-69.53-21.35-92.81-48.28-21.72-25.12-35.42-59.08-40.86-101.2-66.16-28.61-104.99-71.24-118.34-129.69-12.5-54.72.52-113.54,13.1-170.43,15.3-69.13,29.75-134.43,1.18-187.12l-10.16-18.73,7.84-19.81c30.55-77.19,11.11-144.41-7.68-209.43-15.32-53-29.79-103.05-17.05-154.76,12.83-52.06,50.1-93.23,116.48-128.12,5.64-84.39,52.59-138.92,132.85-154.59,26.29-84.2,91.36-108.2,144.81-127.92,34.6-12.76,67.27-24.81,92.59-51.65,17.44-17.25,27.3-41.75,33.18-70.02,4.31,26.69,15.26,50.09,33.18,70.02,25.32,26.83,58,38.88,92.59,51.65,53.45,19.72,118.52,43.72,144.81,127.92,80.27,15.66,127.21,70.2,132.85,154.59,66.37,34.88,103.64,76.05,116.48,128.12,12.75,51.71-1.72,101.76-17.05,154.76-18.8,65.02-38.23,132.24-7.68,209.43l7.84,19.81-10.16,18.73c-28.57,52.68-14.12,117.98,1.18,187.12,12.59,56.88,25.61,115.7,13.1,170.43-13.35,58.45-52.17,101.08-118.33,129.69-5.45,42.12-19.14,76.08-40.86,101.2-23.28,26.93-54.43,43.11-92.82,48.28-.01.06-.02.12-.04.17-3.81,17.92-15.98,33.14-32.56,40.74-54.63,25.09-123.13,37.82-203.57,37.82Z"></path>
        </g>
        <path class="cls-1" d="M996.64,932.28c-86.92-219.64,164.53-363.22-94.63-480.42,4.2-93.55-40.87-137.31-124.72-141.91-22.61-142.13-150.74-101.99-233.42-189.59-82.68,87.6-210.81,47.46-233.42,189.59-83.84,4.6-128.92,48.37-124.72,141.91-259.16,117.2-7.7,260.79-94.63,480.42,90.27,166.48-145.19,391.65,107.08,476.66,3.42,98.58,48.6,143.81,134.18,137.41-.4,12.81-.81,26.45,1.03,35.1.82,3.84,3.37,7.1,6.94,8.74,54.75,25.15,123.42,35.4,203.54,33.43,80.12,1.97,148.79-8.29,203.54-33.43,3.57-1.64,6.12-4.89,6.94-8.74,1.84-8.65,1.43-22.29,1.03-35.1,85.58,6.4,130.75-38.83,134.17-137.41,252.27-85.01,16.81-310.18,107.08-476.66Z"></path>
      </g>
      <g id="inner">
        <g id="tulisan">
          <g id="rumi_masjid" data-name="rumi masjid">
            <g>
              <path class="cls-12" d="M406.09,219.47c8.21-1.69,12.3-2.47,20.47-3.91,2.94,26.55,4.39,39.92,7.25,66.81.1-.01.15-.02.26-.03,4.34-27.79,6.53-41.75,10.94-69.76,8.14-1.2,12.21-1.74,20.31-2.68-1.17,38.73-1.76,58.1-2.94,96.84-5.32.42-7.98.65-13.3,1.15.84-29.16,1.27-43.74,2.11-72.9-.1.01-.15.02-.26.03-4.98,29.68-7.45,44.47-12.35,73.91-4.71.49-7.07.76-11.78,1.31-3.35-28.34-5.04-42.41-8.49-70.32-.1.02-.16.03-.26.05-.71,28.63-1.06,42.94-1.76,71.57-4.92.63-7.39.97-12.32,1.67.85-37.49,1.27-56.24,2.12-93.73Z"></path>
              <path class="cls-12" d="M486.84,207.75c7.66-.64,11.48-.9,19.11-1.3,4.54,38.87,6.79,58.41,11.28,97.57-5.6.11-8.4.19-14.01.38-.76-7.75-1.14-11.62-1.91-19.36,0,.11,0,.17,0,.28-6.38.26-9.57.43-15.96.81-1.27,7.7-1.9,11.55-3.17,19.24-5.21.3-7.81.47-13.03.85,7.03-39.25,10.57-58.97,17.68-98.47ZM500.08,272.11c-1.87-19.24-2.8-28.85-4.69-48.01-.1,0-.15,0-.26.02-3.09,19.49-4.63,29.23-7.71,48.68,5.06-.31,7.59-.45,12.65-.68Z"></path>
              <path class="cls-12" d="M526.55,298.9c-3.33-4.22-4.86-10.29-4.6-18.25.08-2.24.11-3.37.19-5.61,5.3-.1,7.94-.12,13.23-.13-.09,2.7-.14,4.04-.23,6.74-.21,6.37,2.09,9.54,6.92,9.57,2.37.02,4.2-.74,5.48-2.26,1.28-1.52,1.98-4.02,2.09-7.48.14-4.12-.59-7.75-2.17-10.91-1.59-3.16-4.62-6.97-9.01-11.37-5.57-5.58-9.43-10.65-11.57-15.15-2.14-4.5-3.11-9.6-2.92-15.3.26-7.77,2.25-13.83,5.96-18.13,3.71-4.31,8.96-6.49,15.73-6.42,6.68.07,11.66,2.36,14.93,6.72,3.27,4.37,4.77,10.55,4.51,18.49-.05,1.63-.08,2.44-.14,4.06-5.26-.21-7.9-.29-13.17-.39.07-2.02.1-3.03.17-5.05.11-3.37-.39-5.83-1.52-7.4-1.13-1.57-2.84-2.37-5.13-2.39-4.65-.05-7.09,3.1-7.3,9.37-.12,3.56.63,6.88,2.26,9.97,1.63,3.1,4.66,6.85,9.08,11.32,5.65,5.71,9.48,10.94,11.53,15.58,2.04,4.65,2.96,10.06,2.75,16.23-.27,8.04-2.27,14.14-6,18.35-3.74,4.21-9.03,6.25-15.89,6.2-6.77-.05-11.83-2.14-15.16-6.36Z"></path>
              <path class="cls-12" d="M567.65,304.41c.19-5.6.28-8.4.47-14,1.34.42,2.85.67,4.54.74,2.79.12,4.88-.54,6.28-2.01,1.4-1.47,2.15-3.78,2.26-6.95.98-30,1.47-45.01,2.45-75.01,5.54.4,8.3.64,13.82,1.17-.95,29.72-1.42,44.58-2.37,74.3-.25,7.98-2.11,13.8-5.56,17.49-3.45,3.7-8.6,5.37-15.44,5.08-2.54-.11-4.68-.37-6.44-.81Z"></path>
              <path class="cls-12" d="M607.36,209.38c5.51.62,8.26.96,13.74,1.71-1.15,38.61-1.73,57.92-2.88,96.53-5.55-.51-8.33-.74-13.89-1.16,1.21-38.83,1.81-58.25,3.02-97.08Z"></path>
              <path class="cls-12" d="M631.33,212.57c8.36,1.29,12.54,2,20.86,3.59,6.77,1.29,11.78,4.35,15.07,9,3.29,4.65,4.85,10.76,4.68,18.33-.43,18.92-.64,28.38-1.07,47.31-.17,7.57-2.01,13.04-5.53,16.46-3.52,3.42-8.72,4.68-15.6,3.8-8.45-1.07-12.68-1.56-21.15-2.43,1.1-38.42,1.65-57.64,2.76-96.05ZM649.83,297.47c2.26.31,4.02-.17,5.26-1.44,1.25-1.27,1.91-3.52,1.99-6.76.49-19.65.73-29.48,1.22-49.13.08-3.24-.46-5.69-1.62-7.36-1.16-1.67-2.86-2.71-5.1-3.11-2.78-.5-4.17-.75-6.96-1.22-.73,27.23-1.1,40.85-1.84,68.09,2.81.36,4.22.54,7.03.92Z"></path>
              <path class="cls-12" d="M301.25,348.19c7.08-1.64,10.61-2.42,17.68-3.93,5.35,30.66,7.95,46.3,13.02,78.08-5.09.55-7.63.83-12.71,1.41-.91-6.21-1.37-9.31-2.29-15.49v.23c-5.81.79-8.71,1.2-14.51,2.04-.9,6.22-1.35,9.33-2.25,15.51-4.71.59-7.06.9-11.77,1.52,4.97-31.15,7.54-47.04,12.83-79.37ZM315.46,397.94c-2.27-15.31-3.42-22.91-5.76-37.97-.09.02-.14.03-.24.05-2.25,16-3.36,23.94-5.54,39.71,4.61-.73,6.92-1.09,11.54-1.79Z"></path>
              <path class="cls-12" d="M338.75,340.22c5.22-1.01,7.82-1.5,13.03-2.45-.33,28.33-.49,42.5-.82,70.83,8.41-.92,12.62-1.35,21.04-2.16-.08,4.82-.12,7.23-.2,12.06-13.5,1.15-20.24,1.79-33.71,3.19.26-32.59.39-48.88.65-81.47Z"></path>
              <path class="cls-12" d="M368.38,370.83c10.32-1.36,15.49-1.99,25.81-3.14-.1,4.91-.16,7.37-.26,12.28-10.3,1.05-15.45,1.62-25.74,2.87.08-4.8.11-7.2.19-12.01Z"></path>
              <path class="cls-12" d="M402.77,329.79c7.42-.97,11.13-1.43,18.54-2.26,2.67,24.69,3.98,37.11,6.58,62.08.1,0,.14-.01.24-.02,3.94-25.42,5.93-38.19,9.94-63.81,7.41-.71,11.11-1.04,18.5-1.61-1.06,35.68-1.59,53.52-2.66,89.19-4.85.2-7.28.3-12.13.53.77-26.86,1.15-40.29,1.91-67.15-.09,0-.14.01-.23.02-4.53,27.16-6.77,40.69-11.23,67.6-4.29.22-6.43.34-10.71.59-3.04-26.34-4.57-39.43-7.69-65.43-.09,0-.14.02-.23.02-.64,26.4-.97,39.59-1.61,65.98-4.47.28-6.7.43-11.16.74.78-34.58,1.17-51.88,1.95-86.46Z"></path>
              <path class="cls-12" d="M468.06,408.3c-3.15-3.78-4.62-9.27-4.4-16.52.84-27.31,1.26-40.97,2.09-68.29,5.18-.36,7.77-.52,12.95-.81-.88,27.85-1.32,41.77-2.21,69.62-.1,3.08.39,5.29,1.48,6.63,1.08,1.33,2.68,1.97,4.79,1.91,2.1-.06,3.74-.79,4.92-2.19,1.17-1.4,1.81-3.65,1.91-6.75.91-27.95,1.36-41.92,2.27-69.87,4.99-.21,7.48-.3,12.46-.46-.91,27.61-1.37,41.41-2.29,69.01-.24,7.33-2.07,12.97-5.47,16.95-3.4,3.97-8.23,6.02-14.45,6.17-6.23.15-10.92-1.65-14.07-5.42Z"></path>
              <path class="cls-12" d="M513.5,321.34c5.17-.11,7.75-.15,12.91-.19-.52,15.29-.77,22.93-1.29,38.22,7.08-15.33,10.63-22.98,17.71-38.22,5.16.04,7.74.08,12.89.19-6.58,13.18-9.88,19.81-16.48,33.1,5.46,22.99,8.19,34.52,13.67,57.53-5.4-.06-8.1-.09-13.5-.11-3.82-16.19-5.73-24.29-9.54-40.45-2.22,4.62-3.33,6.93-5.55,11.55-.39,11.56-.58,17.33-.97,28.89-5.16.02-7.73.04-12.88.09,1.21-36.23,1.82-54.35,3.03-90.59Z"></path>
              <path class="cls-12" d="M562.05,321.49c5.15.14,7.73.23,12.87.44-.49,14.72-.73,22.07-1.21,36.79,5.53.18,8.3.29,13.83.53.47-14.66.71-22,1.18-36.66,5.14.28,7.71.44,12.85.78-1.12,35.87-1.68,53.81-2.81,89.68-5.18-.18-7.77-.27-12.95-.42.52-16.21.78-24.31,1.31-40.52-5.54-.22-8.31-.32-13.84-.49-.54,16.26-.8,24.39-1.34,40.66-5.17-.11-7.76-.16-12.92-.24,1.21-36.22,1.82-54.33,3.03-90.55Z"></path>
              <path class="cls-12" d="M611.16,324.06c5.14.4,7.7.61,12.84,1.07-.89,30.46-1.33,45.69-2.22,76.15,8.53.45,12.79.7,21.32,1.26-.13,5.02-.2,7.53-.33,12.55-13.75-.79-20.61-1.13-34.33-1.68,1.09-35.74,1.63-53.61,2.72-89.35Z"></path>
              <path class="cls-12" d="M651.27,327.98c5.12.6,7.68.92,12.8,1.59-.82,34.69-1.23,52.04-2.04,86.72-5.2-.35-7.8-.52-13-.83.9-34.99,1.35-52.49,2.24-87.49Z"></path>
              <path class="cls-12" d="M674.42,412.8c-3.15-3.97-4.64-9.46-4.49-16.45.04-1.97.07-2.96.11-4.93,4.9.44,7.35.67,12.24,1.16-.05,2.34-.07,3.51-.12,5.86-.11,5.53,2.08,8.48,6.56,8.89,2.21.2,3.9-.31,5.06-1.53,1.16-1.22,1.77-3.32,1.82-6.29.06-3.54-.67-6.73-2.19-9.6-1.52-2.87-4.39-6.44-8.52-10.72-5.23-5.43-8.84-10.32-10.86-14.54-2.02-4.21-2.97-8.83-2.86-13.85.15-6.81,1.9-11.89,5.24-15.16,3.34-3.26,8.1-4.41,14.29-3.43,6.11.97,10.71,3.6,13.79,7.76,3.08,4.16,4.58,9.6,4.48,16.34-.02,1.38-.03,2.07-.05,3.46-4.85-.74-7.28-1.1-12.14-1.79.03-1.74.04-2.6.07-4.34.05-2.89-.46-5.08-1.53-6.57-1.06-1.49-2.64-2.4-4.74-2.71-4.27-.63-6.46,1.79-6.57,7.24-.06,3.09.68,6.08,2.23,8.96,1.55,2.89,4.39,6.5,8.54,10.82,5.3,5.52,8.96,10.34,10.94,14.49,1.98,4.15,2.94,8.83,2.86,14.07-.1,6.83-1.85,11.89-5.26,15.25-3.41,3.36-8.33,4.8-14.72,4.3-6.32-.5-11.06-2.7-14.21-6.67Z"></path>
              <path class="cls-12" d="M716.8,337.91c5.1.94,7.65,1.43,12.75,2.44-.28,32.61-.41,48.92-.69,81.52-5.22-.52-7.83-.77-13.05-1.26.4-33.08.6-49.62,1-82.7Z"></path>
              <path class="cls-12" d="M739.04,342.28c6.39,1.33,9.58,2.02,15.96,3.46,4.95,20.01,7.46,29.87,12.58,49.26.09.02.14.02.23.04-.09-18.55-.13-27.83-.22-46.38,4.53,1.08,6.79,1.63,11.31,2.76.29,30.46.43,45.69.72,76.15-5.38-.67-8.07-.99-13.45-1.63-6.37-23.42-9.49-35.39-15.61-59.74-.09-.02-.14-.03-.23-.04-.04,23.19-.06,34.78-.1,57.97-4.66-.51-6.99-.76-11.65-1.25.18-32.23.27-48.35.45-80.59Z"></path>
            </g>
          </g>
          <g id="jawi_masjid" data-name="jawi masjid">
            <path class="cls-18" d="M119.87,1231.91c1.92-8.38,5.76-15.66,13.62-20.03,8.57-4.76,17.67-8.25,27.73-8.53,1.06-.03,2.13.35,3.36,1.6-1.68.44-3.35.92-5.04,1.31-7.29,1.68-14.58,3.47-20.19,8.69-7.75,7.21-9.56,17.19-4.78,27.18,5.96,12.45,15.23,22.24,26.8,29.92,6.77,4.5,13.71,8.76,20.66,13,5.22,3.19,8.17,2.98,12.43-1.27,2.63-2.62,5.52-5.49,6.81-8.8,2.44-6.26,7.25-7.05,13.43-7.23-.81,2.12-1.51,3.88-2.17,5.66-4.22,11.29,3.25,20.63,15.7,19.52,2.9-.26,5.76-1,8.66-1.31,1.91-.2,3.85-.04,6.01.31-4.79,2.83-7.66,6.49-6.5,12.01,1.5,7.15,4.82,13.24,11.87,16.53,3.81,1.78,7.9,2.98,11.85,4.47,1.43.54,2.83,1.17,4.99,2.07-4.96,4.16-7.19,8.71-5.06,15.02,3.32-.44,6.86-1.27,10.42-1.3,8.87-.09,17.89-.74,26.6.48,18.85,2.63,25.63,20.95,19.26,36.81-1.02,2.54-3.27,4.61-5.38,7.47,3.94.99,7.99,2.52,12.16,2.95,6.47.66,13.04.91,19.54.71,5.43-.17,9.06-3.56,11.44-8.23,8.22-16.1,16.53-32.15,24.64-48.29,5.71-11.37,9.66-16.06,18.33-19.15-2.14,4.96-4.05,10.02-6.45,14.85-9.18,18.5-18.74,36.82-27.63,55.44-2.41,5.05-3.91,10.9-4.2,16.46-.53,10.26,8.43,20.36,19.03,20.71,15.96.53,31.96-.23,48.07-1.29-8.68-3.83-16.14-9.48-25.79-11.11-6.62-1.12-12.81-4.68-19.2-7.15-1.99-.77-3.98-1.55-5.99-2.33,3.78-7.5,11.31-11.29,18.9-9.25,4.44,1.19,8.95,2.73,12.9,4.99,18.37,10.48,37.4,19.47,57.89,25.26,4.73,1.33,9.62,2.08,15.49,3.32-3.04,3.69-4.97,8.04-8.2,9.37-3.12,1.29-7.58-.52-11.56-.98-3.58,7.63,1.31,18.09,9.74,20.23,12.28,3.12,24.67,5.34,37.28,2.38,4.93-1.16,9.64-3.23,14.4-5.02,2-.76,3.86-1.88,6.28-3.08.53,1.76.96,3.05,1.3,4.36,2.3,8.89,9.67,13.77,18.83,12.45,11.19-1.61,11.24-1.89,10.17-13.14-2.66-28.05-5.13-56.12-7.68-84.19-.04-.43.1-.94-.09-1.27-3.75-6.59,1.69-11.04,3.65-16.29.42-.09.84-.19,1.26-.28,3.9,10.23,7.79,20.45,11.69,30.68-.62.43-1.23.86-1.85,1.29-1.65-2.59-3.3-5.18-4.95-7.76-.56.43-1.12.86-1.68,1.29.7,7.03,1.37,14.07,2.1,21.1,1.58,15.22,3.36,30.41,4.73,45.65.98,10.93-2.18,20.96-8.58,29.93-1.09,1.53-3.05,2.82-4.88,3.42-5.63,1.84-11.4,3.3-17.97,5.15-.84,1.59-2.1,4.31-3.66,6.86-2.62,4.28-5.07,4.54-8.69.98-6.09-5.99-7.26-13.12-4.77-20.98.77-2.43,1.75-4.8,2.98-8.13-1.76.82-2.87,1.23-3.86,1.83-16.14,9.71-33.12,10.38-50.56,4.16-13.07-4.66-17.22-16.12-10.8-28.98.57-1.14,1.22-2.25,2.33-4.31-4.95-.49-9.38-1.47-13.75-1.26-14.47.69-28.91,2.11-43.38,2.67-10.64.41-21.31,0-31.97-.26-2.76-.07-6.07.01-6.66-4-.07-.46-1.16-.76-1.77-1.15-13.47-8.57-13.67-21.65-8.67-32.8.34-.75.74-1.47.88-2.69-9.15,5.35-18.38,9.81-29.48,8.48-16.21-1.95-26.87-5.7-27.21-10.08-23.62-5.49-39.5-18.58-48.19-39.64-2.22.23-4.41.46-6.59.69-.36-.45-.72-.91-1.08-1.36,9.36-1.94,8.36-10.53,12.59-16.11-7.93-2.81-16.55-3.7-21.74-11.09-4.98-7.09-7.18-14.33-2.05-22.63-11.33.27-23.56,2.87-28.11-11.65-4.62,1.36-9.24,3.19-14.03,3.97-3.31.54-7.27.53-10.26-.75-20.32-8.69-38.03-20.77-49.84-39.65-2.61-4.17-3.95-9.1-5.87-13.67,0-1.72,0-3.44,0-5.15ZM259.98,1346.39c1.54,3.04,2.53,5.6,4.03,7.83,8.06,12.01,18.98,20.82,32.22,26.92,7.07,3.26,8.58,2.45,9.8-4.82,2.24-13.36-3.32-24.07-15.03-28.13-9.85-3.41-20.02-3.63-31.01-1.8ZM528.01,1476.22c.57-.2,1.14-.4,1.71-.6,0-1.25.52-2.89-.1-3.67-2.04-2.6-4.5-4.89-6.79-7.29-.37.21-.75.41-1.12.62,2.1,3.65,4.2,7.3,6.3,10.95Z"></path>
            <path class="cls-18" d="M931.46,1164.91c.79,5.62-.85,10.35-4.08,15.21-8.99,13.51-17.36,27.41-25.99,41.15-.6.95-1.27,1.86-2.34,3.43-1.08-5.03-.5-9.23,1.76-12.94,6.18-10.19,12.58-20.24,18.96-30.31,3.53-5.56,7.2-11.03,10.81-16.54.29,0,.59,0,.88,0Z"></path>
            <path class="cls-18" d="M761.12,1375.71c-7.07,3.36-15.3,5.47-20.92,10.41-6.99,6.13-15.42,9.49-22.8,14.68-3.25,2.28-4.36,1.51-4.88-2.54-1.35-10.52,1.85-15.61,12.21-20.51,17.21-8.14,34.4-16.32,51.39-24.88,5.15-2.6,9.63-6.48,14.38-9.82,2.59-1.82,5.1-3.76,8.5-6.27,1.13,4.64,2.31,8.54,2.87,12.52.13.9-1.77,2.24-2.94,3.13-2.24,1.7-4.63,3.22-7.24,5.01,4.99,4.55,10.53,5.64,15.67,3.78,8.69-3.15,17.58-6.55,25.16-11.59,4.39-2.92,6.56-9.17,9.38-14.11,1.77-3.08,2.89-6.52,4.58-10.41,2.02,2.6,3.53,4.8,5.31,6.76,3.55,3.9,8.61,4.05,12.44.46,5.53-5.2,8.69-11.4,8.37-19.07-.11-2.59-.02-5.19-.02-7.78.49-.07.98-.14,1.47-.21.62,1.35,1.26,2.7,1.87,4.05,1.94,4.31,4.8,5.34,9.17,3.3,5.88-2.74,7.23-5.49,6.26-11.99-.49-3.25-.58-6.56-.86-9.84.39-.08.78-.15,1.17-.23.61.76,1.28,1.48,1.83,2.28,3.6,5.3,10.68,6.14,14.81,1.14,6.43-7.78,12.5-15.9,14.66-26.03.38-1.8.51-3.67.6-5.51.35-7.71.47-15.43,1.01-23.13.69-9.98,8.68-14.42,17.62-9.68,8.07,4.28,13.18,10.55,13.27,20.17.04,3.95-1.48,6.01-5.09,6.64-6.89,1.2-13.82,2.15-20.74,3.19-.7.11-1.4.16-1.18.13-1.13,8.28-1.13,16.48-3.57,23.91-2.59,7.88-6.96,15.38-11.66,22.34-2,2.97-6.75,4.36-11.13,2.69-1.76-.67-3.5-1.36-5.69-2.22.05,5.69,1.27,11.4-3.21,15.91-4.14,4.16-8.21,4.16-15.17-.43-.07,7.52-.95,14.5-6.76,20.1-7.01,6.77-13.42,4.14-20.03-.84-2.22,4.29-4.05,8.31-6.31,12.08-5,8.34-25.6,21.49-38.81,18.42-4.35-1.01-8.25-3.98-12.23-6.27-2-1.15-3.71-2.78-6.01-4.55-5.68,4.46-10.57,10.75-15.15,17.35-8.93,12.87-17.93,25.69-26.98,38.48-1.99,2.81-4.3,5.4-6.45,8.11-8.7,10.98-24.97,9.41-32.65-.07-2.87-3.55-5.6-7.22-8.43-10.88-1.71,18.42-14.61,30.19-26.33,42.5-4.44,4.66-9.73,8.79-15.27,12.13-3.93,2.37-8.92,4.11-13.48,4.2-8.95.19-14.01-4.75-15.93-13.52-1.68-7.66-1.78-15.32-.01-22.96.32-1.39,1.08-2.69,2.58-3.78-.27,3.32-.68,6.63-.77,9.96-.16,6.08-.41,12.8,5.67,16.17,5.77,3.2,11.94.81,17.49-2.15,11.89-6.36,21.49-15.15,29.23-26.01,3.43-4.81,7.21-9.37,10.9-13.99,3.48-4.36,4.57-8.79,1.15-13.73-9.15-13.23-18.01-26.66-27.45-39.69-3.77-5.21-4.79-10.71-5.27-16.59.34-.26.68-.51,1.03-.77,4.46,4.18,9.39,7.99,13.3,12.61,10.79,12.72,19.38,26.78,25.24,42.36,1.3,3.47,2.9,6.9,4.84,10.06,6.38,10.36,20.16,11.99,28.56,3.2,3.96-4.14,7.27-8.91,10.69-13.51,5.9-7.94,11.66-15.98,17.48-23.98-.24-.23-.48-.45-.72-.68ZM945.18,1244.63c-5.13-4.11-10.18-4.62-13.71-1.68-.95.79-1.3,2.27-1.93,3.43,1.17.3,2.41,1.02,3.49.84,3.84-.64,7.62-1.59,12.15-2.59Z"></path>
            <path class="cls-18" d="M582.91,1343.92c3.96,10.6,7.75,20.75,11.54,30.9-.61.43-1.22.87-1.83,1.3-1.36-2.41-2.73-4.81-4.09-7.22-.68.46-1.36.93-2.05,1.39.43,5.17.86,10.34,1.29,15.51,1.72,20.95,3.56,41.89,5.11,62.85.67,9.13-2.63,17.59-5.14,26.14-.39,0-.78,0-1.17,0-.21-1.4-.63-2.81-.6-4.2.49-28.12-3.32-55.95-6.07-83.84-.86-8.68-1.18-17.42-2.09-26.1-.7-6.68.19-10.68,5.11-16.74Z"></path>
            <path class="cls-18" d="M924.44,1334.46c-4.57-3.42-3.34-6.19-.73-9.78.9,1.83,1.68,3.07,2.11,4.41.34,1.07.28,2.26.34,3.4.51,10.24-2.77,12.69-12.93,9.44-.63.85-1.3,1.75-1.97,2.66-3.33,4.52-8.45,6.43-13.87,4.75-6.78-2.1-12.67-.08-17.34,4.31-5.46,5.12-10.32,10.9-15.04,16.71-7.67,9.44-18.07,15.23-28.44,21.1-2.32,1.31-4.87,2.25-7.31,3.36-.18-.31-.35-.62-.53-.93,5.55-3.74,11.56-6.99,16.56-11.35,7.04-6.14,14.09-12.54,19.74-19.85,5.83-7.53,12.33-14.08,20.14-19.42,3.48-2.38,7.38-3.03,11.65-1.42,6.32,2.38,11.9-.42,14.29-6.76.76-2.02,1.58-4.01,2.33-5.9,1.68,2.44,2.61,4.89,4.41,6.03,1.19.76,3.63-.35,6.59-.78Z"></path>
            <path class="cls-18" d="M603.49,1412.63c1.43-2.09,2.86-4.18,4.3-6.26,5.88-8.51,12.19-16.77,17.46-25.62,2.86-4.8,4.4-10.52,5.66-16.01.74-3.25.95-7.2-3.39-9.26-4.29-2.04-7.21.33-10.27,2.58-.76.56-1.53,1.11-2.3,1.67-.37-.23-.75-.46-1.12-.69,1.37-2.59,2.53-5.3,4.15-7.73,3.93-5.89,9.83-8.56,14.63-7.03,3.38,1.08,5.28,3.22,6.05,6.63,1.44,6.39.82,12.67-2.06,18.4-7.52,14.92-17.23,28.48-28.22,41.16-1.06,1.22-2.57,2.07-3.87,3.1l-1.03-.92Z"></path>
            <path class="cls-18" d="M770.12,1308.07c-6.55-5.01-7.94-4.53-9.62,3.75-.74,3.63-1.1,7.36-1.37,11.06-.44,5.89-2.78,10.81-7.46,14.5-7.07,5.58-14.65,10.29-24.06,11.78,4.94-3.37,9.9-6.72,14.8-10.13,2.62-1.82,5.21-3.69,7.69-5.69,5.35-4.32,5.6-4.62,2.34-10.57-2-3.64-3.48-8.22-9.35-8.1-1.44.03-3.2-1.45-4.33-2.66-2.22-2.38-2.66-5.64-.17-7.61,1.18-.93,5.22-.23,6.41,1.07,3.36,3.69,5.97,8.04,8.76,12.21.76,1.13,1.12,2.52,2.61,3.75.59-3.95,1.15-7.91,1.79-11.86.27-1.69.66-3.36,1.1-5.02,1.46-5.45,3.82-7.38,7.53-6.23,4.2,1.3,5.21,4.25,3.34,9.74Z"></path>
            <path class="cls-18" d="M491.48,1365.85c.93-5.9,1.57-11.87,2.93-17.67.44-1.89,2.51-4.38,4.25-4.75,1.78-.38,4.88.97,5.92,2.51,1.24,1.84.9,4.7,1.32,7.68-1.61-.48-1.92-.51-2.15-.66-1.63-1.06-3.24-2.14-4.86-3.21-1.19,1.85-2.96,3.57-3.44,5.58-.99,4.15-1.79,8.45-1.74,12.68.08,6.31-2.6,10.93-7.28,14.86-6.78,5.69-14.9,8.63-23.65,10.57,1.71-1.21,3.4-2.44,5.13-3.61,6.36-4.28,12.73-8.55,19.11-12.82,2.36-1.58,3.24-3.43,1.74-6.15-1.17-2.11-1.82-4.51-3.03-6.6-1.55-2.66-3.19-5.33-7.18-4.86-1.18.14-2.54-.6-3.72-1.14-2.95-1.34-4.29-5.47-2.49-8.03,2.02-2.88,5.13-2.17,6.85-.34,3.61,3.83,6.59,8.23,9.71,12.48.79,1.07,1.12,2.47,1.65,3.71.31-.08.62-.15.92-.23Z"></path>
            <path class="cls-18" d="M466.52,1411.03c19.04-7.59,39.86-9.32,58.93-18.48-1.21-1.45-1.93-2.47-2.8-3.33-3.7-3.65-4.02-6.41-.25-9.79,2.61-2.34,5.71-4.45,8.97-5.76,3.89-1.56,6.95,1.07,5.92,5.03-.91,3.51-2.89,6.75-4.61,10.59.41.52,1.28,1.61,2.61,3.27-1.36,1.14-2.67,2.24-4.24,3.55-3.11-2.89-5.4-.81-8.23.78-10.9,6.16-23.04,8.82-35.28,11-6.97,1.24-14.02,2.1-21.03,3.13ZM530.36,1387.31c1.61-3.08,3.34-6.09.27-8.51-.88-.7-5.12.6-5.43,1.65-1.09,3.74,2.58,4.86,5.16,6.86Z"></path>
            <path class="cls-18" d="M873.87,1217.74c-1.45,5.3-3.09,10.56-4.31,15.91-1.71,7.51-3.53,15.03-4.45,22.64-.45,3.78.35,8.04,1.76,11.64,2.22,5.67,7.87,5.9,11.41.9,1.05-1.49,2.03-3.03,3.12-4.67,3.15,6.39-3.08,18.43-9.75,19.09-3.67.36-6.35-1.24-7.96-4.73-3.57-7.73-4.17-15.74-2.29-23.86,2.43-10.52,5.15-20.98,7.92-31.42.56-2.09,1.9-3.98,2.88-5.96.55.16,1.11.31,1.66.47Z"></path>
            <path class="cls-18" d="M824.75,1404.87c-.97,4.93-3.01,8.1-6.77,11-11.35,8.77-22.21,18.15-33.28,27.27-2.99,2.47-6.04,4.87-9.07,7.3-.35-.21-.7-.42-1.05-.63,1.47-2.79,2.58-5.84,4.47-8.32,5.25-6.89,37.33-32.45,45.69-36.61Z"></path>
            <path class="cls-18" d="M217.76,1379.48c4.4-.07,9.04-1.09,13.15-.05,15.27,3.84,30.37,8.33,45.52,12.62,2.31.65,4.56,1.52,6.84,2.29-.01.47-.02.94-.04,1.41-3.37.22-6.96,1.31-10.07.52-18.08-4.55-36.04-9.54-54.04-14.4-.54-.15-1.02-.48-1.53-.73.06-.55.11-1.11.17-1.66Z"></path>
            <path class="cls-18" d="M283.29,1419.65c3.92-2.31,7.92-3.68,12.36-2.64,16.55,3.91,33.09,7.84,49.63,11.82,1.51.36,2.92,1.1,4.38,1.67-.02.52-.03,1.03-.05,1.55-3.89.12-7.95,1.01-11.64.23-16.94-3.59-33.78-7.65-50.65-11.55-1.35-.31-2.68-.72-4.02-1.08Z"></path>
            <path class="cls-18" d="M364.52,1338.76c-2.71-8.28-4.49-8.95-10.47-3.74-5,4.36-9.66,9.1-14.47,13.68-.42-.13-.84-.25-1.26-.38.34-2.21.6-4.43,1.05-6.62.48-2.37,1.57-4.71,1.55-7.06-.01-1.96-1.36-3.89-1.89-5.88-.78-2.91-1.83-5.87-1.83-8.82,0-1.26,2.55-3.71,3.53-3.52,1.57.3,3.87,2.25,3.98,3.64.43,5.18.14,10.43,0,15.65-.04,1.32-.55,2.62-.9,4.17,5.55-4.2,10.51-8.37,15.9-11.91,4.23-2.78,8.9-.17,8.54,4.79-.15,2.07-2.41,4-3.71,6Z"></path>
            <path class="cls-18" d="M824.64,1283.01c-4.72,2.82-9.44,5.64-14.21,8.49-2.51-6.68-1.61-10.2,3.84-13.85,2.86-1.92,6.01-3.51,9.2-4.84,4.3-1.8,6.12-.49,6.78,4.01,1.49,10.06-4.23,16.29-12.41,21.33,2.53-4.75,5.07-9.5,7.6-14.24-.27-.3-.53-.6-.8-.89Z"></path>
            <path class="cls-18" d="M426.67,1350.27c5.77.42,10.99.8,16.2,1.17.18-.41.36-.83.53-1.24-4.4-3.07-8.8-6.14-13.22-9.22,4.77-4.74,8.94-5.56,13.97-2.28,3.37,2.2,6.4,4.94,9.42,7.61,2.2,1.95,1.79,4-.4,5.83-6.69,5.58-19.29,4.92-26.5-1.87Z"></path>
            <path class="cls-18" d="M645.17,1403.03c2.67-4.53,5.34-9.05,8.01-13.58-.21-.32-.42-.65-.63-.97-4.76,2.39-9.52,4.78-14.27,7.17-1.69-7.43-.65-10.04,5.88-13.42,2.94-1.52,6.15-2.57,9.26-3.77,3.48-1.34,5.16.52,5.33,3.53.29,5.07-.45,10.07-4.16,13.99-2.67,2.83-5.69,5.36-8.55,8.02l-.88-.98Z"></path>
            <path class="cls-18" d="M198.7,1326.32c2.34-.63,4.4-1.19,6.83-1.84,1.07,3.01,2.05,5.78,3.31,9.35-2.99.66-6.39,2.5-8.23,1.52-2.03-1.07-2.62-4.73-3.98-7.56-2.14.61-4.18,1.2-6.68,1.91-1.16-3.25-2.24-6.27-3.65-10.24,3.29-.55,6.98-2.3,8.75-1.17,2.07,1.32,2.47,5.14,3.65,8.03Z"></path>
            <path class="cls-18" d="M414.58,1337.64c-2.24,3.42-4.56,6.79-6.71,10.27-1.96,3.17-4.22,6.3-5.42,9.75-.78,2.25.09,5.06.22,7.61,2.34-.23,4.68-.47,7.31-.73-.86,3.05-3,6.05-6.83,6.96-1.24.3-4.47-1.99-4.49-3.13-.06-3.84.38-7.87,1.61-11.52,2.6-7.72,7.87-13.88,13.3-19.84.34.21.68.41,1.01.62Z"></path>
            <path class="cls-18" d="M243.19,1262.16c.17-.48.15-.15-.03.04-3.69,3.85-7.77,5.11-10.27,3.19-2.36-1.81-2.46-6.83.99-10.44,5.13-5.36,11-10.07,16.65-14.94.86-.74,2.25-.88,4.12-1.56-5.05,4.51-9.44,8.43-13.83,12.35-.32.29-.78.52-.94.88-1.22,2.75-2.38,5.52-3.56,8.28,2.28.73,4.57,1.46,6.87,2.2Z"></path>
            <path class="cls-18" d="M782.54,1409.18c1.71-2.98,3.05-5.3,4.58-7.98,3.12,1.74,5.95,3.31,9.22,5.13-1.31,2.54-2.52,4.89-4.15,8.07-3.19-1.72-6.21-3.36-9.66-5.22Z"></path>
            <path class="cls-18" d="M189.96,1233.17c-2.22,2.72-3.81,6.39-5.73,6.57-2.26.21-6.08-2.15-6.88-4.25-.71-1.88,1.75-4.92,2.95-7.75,3.31,1.86,6.03,3.39,9.66,5.43Z"></path>
            <path class="cls-18" d="M437.88,1376.09c2.51,10.1,1.89,11.02-6.88,10.46-2.76-9.71-2.35-10.36,6.88-10.46Z"></path>
            <path class="cls-18" d="M432.26,1605.19c6.31-2.65,12.74-5.03,18.9-8,11.01-5.32,21.95-10.79,32.72-16.59,5.08-2.74,9.68-6.37,14.5-9.6,2.52-1.69,2.97-3.83,1.53-6.27-3.45.48-6.8,1.34-10.15,1.34-5.51,0-8.32-3.57-6.58-8.75,1.01-3,3.16-5.82,5.41-8.13,1.93-1.99,4.7-2.13,7.07,0,.53.47,1.27.77,1.68,1.31,6.31,8.38,15.4,9.01,24.49,7.99,8.69-.98,17.22-3.32,25.83-4.98,2.96-.57,3.41-2.28,2.88-4.93-1.75-8.75-3.63-17.48-4.94-26.3-.65-4.34-2.48-8.79-.5-13.28.28-.63.64-1.22,1.48-2.79,2.99,5.61,5.65,10.58,8.31,15.56-.3.24-.59.47-.89.71-1.17-.59-2.34-1.18-3.75-1.9,1.28,7.36,2.58,14.45,3.7,21.57.37,2.33.49,4.77.29,7.12-.48,5.64-2.91,9.76-8.71,11.79-8.98,3.15-17.94,6.31-27.59,6.06-4.69-.12-9.36-1.01-14.52-1.61.03,11.26-8.56,16.34-16.93,21.44-7,4.27-13.85,9.03-21.36,12.11-6.82,2.8-14.43,3.7-21.72,5.3-3.57.78-7.21,1.25-10.82,1.86-.1-.34-.2-.68-.31-1.01ZM487.97,1557.56h6.92c-3.54-3.17-4.68-3.21-6.92,0Z"></path>
            <path class="cls-18" d="M452.6,1526.81c-1.16.64-1.81,1-2.7,1.49,1,.81,1.8,1.46,2.84,2.3,2.1-3.55,3.88-7.05,6.11-10.23,2.11-3,4.52-5.84,7.15-8.39,1.09-1.06,3.24-1.83,4.6-1.49.83.2,1.81,2.93,1.49,4.22-1.15,4.67-2.52,9.34-4.4,13.75-1.42,3.34-3.74,6.3-6.01,10.01.79.54,1.6,1.03,2.33,1.61,5.67,4.5,6.28,10.57,4.39,16.83-1.92,6.37-7.57,8.91-13.35,10.68-2.78.85-4.97-1.42-5.53-5.12-.75-5,.39-9.71,2.46-14.22.98-2.14,2.09-4.23,3.23-6.52-1.05-.86-2.02-1.66-3.19-2.63-5.92,8.31-11.93,16.13-21.64,20.3,1.08-1.33,2.12-2.68,3.24-3.97,4.67-5.37,9.35-10.73,14.06-16.06,1.47-1.67,1.29-3.09-.17-4.68-1.28-1.4-2.3-3.03-3.54-4.48-2.5-2.93-3.04-6.05-1.46-10.56,3.33,2.36,6.54,4.65,10.08,7.17ZM467.35,1553.31c-3.5-3.36-6.4-6.14-9.82-9.42-1.89,4.13-3.62,7.47-4.9,10.98-.39,1.08.06,3.1.88,3.81.79.68,2.77.7,3.86.19,3.08-1.43,5.96-3.28,9.98-5.56ZM459.05,1535.84c3.05-4.75,6.16-9.48,9.11-14.31.5-.82.29-2.08.41-3.14-1.06.27-2.47.2-3.11.88-2.85,3.02-5.53,6.2-8.17,9.41-2.71,3.31-2.41,4.56,1.76,7.16Z"></path>
            <g>
              <path class="cls-18" d="M593.48,1541.02c8,11.15,19.8,11.39,31.11,12.09,16.45,1.01,32.45-2.03,48.11-6.96,6.53-2.05,7.46-4.64,2.8-9.82-2.99-3.32-2.53-6.21-1.01-9.94.78.6,1.52.98,2,1.57,4.56,5.59,5.1,12.12,3.09,18.58-.75,2.41-3.69,4.76-6.19,5.88-9.05,4.03-18.52,6.74-28.51,7.32-5.11.29-10.21,1.15-15.3,1.09-8.27-.1-16.54-.75-25.15-1.19-.05.32-.21,1.22-.34,2.12-.68,4.61-2.89,5.65-6.88,3.15-3.66-2.29-5.75-5.6-6.04-9.97-.07-1.14-.15-2.29-.31-4.65-3.92,5.3-7.2,9.92-13.22,10.87-.06.94-.21,1.65-.15,2.34.88,10.04-3.44,17.2-11.97,22.17-6.57,3.83-13.11,7.73-19.55,11.77-8.28,5.2-17.57,7.02-26.99,8.54-4.3.69-8.58,1.42-12.88,2.14-.11-.3-.22-.6-.33-.91,1.61-.73,3.21-1.45,4.82-2.18,12.11-5.5,24.39-10.66,36.28-16.62,8.03-4.03,15.64-8.98,23.17-13.92,5.96-3.91,6.36-6.9,2.85-13.23-.46-.83-.88-1.73-1.51-2.42-2.99-3.28-2.52-6.83-1.02-10.66.42.2.85.26.99.5,4.1,7.13,9.41,4.85,14.23.68,2.75-2.38,5.05-5.29,7.9-8.34Z"></path>
              <path class="cls-18" d="M635.89,1527.12c1.16-1.88,2.15-3.49,3.42-5.55,2.7,1.43,5.31,2.81,8.73,4.63-1.8,2.34-3.09,5.67-5.03,6.08-2.03.43-4.68-1.94-7.31-3.21-1.16,1.79-2.23,3.45-3.43,5.3-2.63-1.43-5.13-2.8-8.24-4.49,1.7-2.34,2.85-5.58,4.77-6.1,1.77-.48,4.38,1.95,7.09,3.34Z"></path>
            </g>
          </g>
        </g>
        <g id="atap_n_kubah" data-name="atap n kubah">
          <rect class="cls-31" x="611.08" y="894.18" width="225.75" height="34.53"></rect>
          <polygon class="cls-16" points="905 969.78 539.84 969.78 611.08 928.71 836.83 928.71 905 969.78"></polygon>
          <rect class="cls-27" x="539.84" y="969.78" width="365.16" height="2.3"></rect>
          <rect class="cls-10" x="552.93" y="1014.28" width="340.45" height="5.13"></rect>
          <rect class="cls-24" x="567.41" y="972.56" width="319.69" height="41.87"></rect>
          <rect class="cls-25" x="573.07" y="972.7" width="308.37" height="41.58"></rect>
          <g>
            <rect class="cls-36" x="575.82" y="984.41" width="56.73" height="27.36"></rect>
            <rect x="575.82" y="975.21" width="56.73" height="2.59"></rect>
            <rect x="575.82" y="979.81" width="56.73" height="2.59"></rect>
          </g>
          <g>
            <rect class="cls-22" x="637.34" y="984.41" width="56.73" height="27.36"></rect>
            <rect x="637.34" y="975.21" width="56.73" height="2.59"></rect>
            <rect x="637.34" y="979.81" width="56.73" height="2.59"></rect>
          </g>
          <g>
            <rect class="cls-3" x="698.86" y="984.41" width="56.73" height="27.36"></rect>
            <rect x="698.86" y="975.21" width="56.73" height="2.59"></rect>
            <rect x="698.86" y="979.81" width="56.73" height="2.59"></rect>
          </g>
          <g>
            <rect class="cls-15" x="760.39" y="984.41" width="56.73" height="27.36"></rect>
            <rect x="760.39" y="975.21" width="56.73" height="2.59"></rect>
            <rect x="760.39" y="979.81" width="56.73" height="2.59"></rect>
          </g>
          <g>
            <rect class="cls-36" x="821.91" y="984.41" width="56.73" height="27.36"></rect>
            <rect x="821.91" y="975.21" width="56.73" height="2.59"></rect>
            <rect x="821.91" y="979.81" width="56.73" height="2.59"></rect>
          </g>
          <path class="cls-35" d="M553.75,1019.35l-195.85,87.75c161.45,106.26,330.24,123.22,529.2-.7l35.47-68.9-28.56-18.24-340.25.08Z"></path>
          <g>
            <path class="cls-33" d="M820.45,762.18c-61.52-38.25-73.12-78.18-73.12-78.18l-17.69-39.2c-1.03-2.75-1.8-5.86-.59-6.96-.01,0-.03,0-.04.02.9-.88,1.59-2.16,1.59-4.16,0-1.65-.72-2.79-1.65-3.63,0,0,0,0,0,0,0,0-.02-.01-.03-.02-.67-.6-1.43-1.02-2.17-1.32-.23-.57.28-1.12.78-1.51.26-.13.49-.29.73-.48h0c.79-.62,1.4-1.52,1.38-2.92-.21-1.59-1.04-2.57-2-3.19.01-.06-.07-.13-.33-.21-1.65-1.12-1.22-5.77-1.22-5.77h0l1.53-3.95-2.6-46.26-1.57-.02-2.64,46.39,1.47,3.86c.02.09,1.01,5.23-.92,5.84-.16.05-.21.09-.22.13-1.33.7-2.58,1.84-2.44,3.65.09,1.14.65,1.9,1.36,2.45h-.02s.04.02.05.02c.3.23.61.42.94.57.47.38.8.93.34,1.55-1.48.72-3.04,2.05-3.42,4.52-.02,2.2.76,3.6,1.77,4.52-.02-.02-.08-.06-.08-.06,0,0,.04.02.09.08,0,0,0,0,0,0,.32.33,1.19,1.95-1.16,7.68l-1.25,2.78c-.2.42-.36.78-.59,1.24,0,0,.02,0,.03.01l-15.5,34.35s-26.06,44.8-74.66,79.76c-4.74,3.41-9.37,7.01-13.41,11.23-50.18,52.2-3.07,99.5,5.1,106.99v12.21h209.7v-11.63c.76.31,1.11.48,1.11.48,0,0,57.69-45.87,14.92-100.14-6.51-8.26-14.63-15.17-23.56-20.72Z"></path>
            <path class="cls-2" d="M725.48,564.41c7.09,0,13.24-4.01,16.42-9.92-1.79,2.02-4.11,3.51-6.71,4.42l1.36-10.18,9.07-4.87-9.16-4.28-1.55-10.2c.28.09.57.14.84.24-2.96-1.96-6.46-3.12-10.26-3.12-10.32,0-18.66,8.48-18.66,18.95s8.35,18.95,18.66,18.95ZM730.02,528.55c1.71,0,3.32.33,4.85.83l-7,7.63-10.01-1.44,4.82,9.02-4.64,9.31,9.98-2.07,7.07,7.11c-1.6.55-3.27.93-5.07.93-8.7,0-15.76-7.02-15.76-15.66s7.06-15.66,15.76-15.66Z"></path>
          </g>
        </g>
        <g>
          <g class="cls-34">
            <g>
              <rect class="cls-8" x="424.99" y="594.97" width="84.92" height="92.96"></rect>
              <g>
                <g>
                  <path class="cls-17" d="M506.76,533.56c-26.4-16.41-31.37-33.54-31.37-33.54l-7.59-16.82c-.44-1.18-.77-2.51-.25-2.99,0,0-.01,0-.02,0,.39-.38.68-.93.68-1.79,0-.71-.31-1.2-.71-1.56,0,0,0,0,0,0,0,0,0,0-.01,0-.29-.26-.61-.44-.93-.57-.1-.24.12-.48.33-.65.11-.06.21-.13.31-.21h0c.34-.27.6-.65.59-1.25-.09-.68-.45-1.1-.86-1.37,0-.03-.03-.06-.14-.09-.71-.48-.52-2.48-.52-2.48h0l.66-1.7-1.11-19.85h-.67s-1.13,19.89-1.13,19.89l.63,1.66s.43,2.24-.4,2.51c-.07.02-.09.04-.1.06-.57.3-1.11.79-1.05,1.57.04.49.28.82.58,1.05h0s.02,0,.02,0c.13.1.26.18.4.24.2.16.34.4.14.67-.63.31-1.31.88-1.47,1.94,0,.95.33,1.54.76,1.94-.01,0-.03-.03-.03-.03,0,0,.02,0,.04.03,0,0,0,0,0,0,.14.14.51.84-.5,3.3l-.54,1.19c-.09.18-.15.34-.25.53,0,0,0,0,.01,0l-6.65,14.74s-11.18,19.22-32.03,34.22c-2.03,1.46-4.02,3.01-5.76,4.82-21.53,22.4-1.32,42.69,2.19,45.91v5.24h89.97v-4.99c.33.13.48.21.48.21,0,0,24.75-19.68,6.4-42.97-2.79-3.55-6.28-6.51-10.11-8.89Z"></path>
                  <path class="cls-14" d="M466.01,448.71c3.04,0,5.68-1.72,7.04-4.26-.77.87-1.76,1.51-2.88,1.9l.58-4.37,3.89-2.09-3.93-1.84-.67-4.37c.12.04.24.06.36.1-1.27-.84-2.77-1.34-4.4-1.34-4.43,0-8.01,3.64-8.01,8.13s3.58,8.13,8.01,8.13ZM467.96,433.32c.73,0,1.42.14,2.08.36l-3,3.27-4.3-.62,2.07,3.87-1.99,3.99,4.28-.89,3.03,3.05c-.69.23-1.4.4-2.17.4-3.73,0-6.76-3.01-6.76-6.72s3.03-6.72,6.76-6.72Z"></path>
                </g>
                <g>
                  <path d="M418.12,592.1v-6.32c-3.38-3.25-11.58-12.38-11.96-24.47-.26-8.26,3.21-16.19,10.3-23.57,1.96-2.04,4.14-3.7,6.02-5.04,19.59-14.09,30.65-32.21,31.45-33.56l5.95-13.17-.07-.05.76-1.5.24-.51.51-1.14c.23-.57.36-.99.43-1.28l-.1-.05v-.49c-.51-.74-.78-1.65-.77-2.67v-.13s.02-.13.02-.13c.11-.73.39-1.4.8-1.96-.28-.45-.45-.96-.49-1.52-.1-1.27.5-2.4,1.65-3.15,0-.19-.03-.42-.06-.62l-.71-1.87,1.26-22.12,4.27.06,1.24,22.03-.7,1.8c0,.25,0,.52.03.71,0,0,.01.01.02.02.81.61,1.33,1.51,1.47,2.55l.02.12v.12c0,.65-.15,1.25-.46,1.78.57.7.87,1.55.87,2.48,0,1.07-.31,2.01-.91,2.77.03.21.12.62.36,1.27l7.62,16.88.04.13c.05.16,5.2,16.7,30.55,32.46,4.22,2.63,7.79,5.76,10.6,9.33,18.29,23.2-3.87,43.21-6.47,45.43v5.4h-93.78Z"></path>
                  <path d="M466.01,450.61c-5.46,0-9.91-4.5-9.91-10.03s4.45-10.03,9.91-10.03c1.94,0,3.82.57,5.45,1.66l-.72,1.37,1.18-.18.51,3.37,6.44,3.01-6.37,3.42-.08.56,2.29,1.59c-1.74,3.24-5.08,5.26-8.72,5.26Z"></path>
                </g>
                <g>
                  <path class="cls-20" d="M506.76,533.56c-26.4-16.41-31.37-33.54-31.37-33.54l-7.59-16.82c-.44-1.18-.77-2.51-.25-2.99,0,0-.01,0-.02,0,.39-.38.68-.93.68-1.79,0-.71-.31-1.2-.71-1.56,0,0,0,0,0,0,0,0,0,0-.01,0-.29-.26-.61-.44-.93-.57-.1-.24.12-.48.33-.65.11-.06.21-.13.31-.21h0c.34-.27.6-.65.59-1.25-.09-.68-.45-1.1-.86-1.37,0-.03-.03-.06-.14-.09-.71-.48-.52-2.48-.52-2.48h0l.66-1.7-1.11-19.85h-.67s-1.13,19.89-1.13,19.89l.63,1.66s.43,2.24-.4,2.51c-.07.02-.09.04-.1.06-.57.3-1.11.79-1.05,1.57.04.49.28.82.58,1.05h0s.02,0,.02,0c.13.1.26.18.4.24.2.16.34.4.14.67-.63.31-1.31.88-1.47,1.94,0,.95.33,1.54.76,1.94-.01,0-.03-.03-.03-.03,0,0,.02,0,.04.03,0,0,0,0,0,0,.14.14.51.84-.5,3.3l-.54,1.19c-.09.18-.15.34-.25.53,0,0,0,0,.01,0l-6.65,14.74s-11.18,19.22-32.03,34.22c-2.03,1.46-4.02,3.01-5.76,4.82-21.53,22.4-1.32,42.69,2.19,45.91v5.24h89.97v-4.99c.33.13.48.21.48.21,0,0,24.75-19.68,6.4-42.97-2.79-3.55-6.28-6.51-10.11-8.89Z"></path>
                  <path class="cls-30" d="M466.01,448.71c3.04,0,5.68-1.72,7.04-4.26-.77.87-1.76,1.51-2.88,1.9l.58-4.37,3.89-2.09-3.93-1.84-.67-4.37c.12.04.24.06.36.1-1.27-.84-2.77-1.34-4.4-1.34-4.43,0-8.01,3.64-8.01,8.13s3.58,8.13,8.01,8.13ZM467.96,433.32c.73,0,1.42.14,2.08.36l-3,3.27-4.3-.62,2.07,3.87-1.99,3.99,4.28-.89,3.03,3.05c-.69.23-1.4.4-2.17.4-3.73,0-6.76-3.01-6.76-6.72s3.03-6.72,6.76-6.72Z"></path>
                </g>
              </g>
              <rect class="cls-8" x="417.18" y="698.58" width="97.45" height="214.07"></rect>
              <rect class="cls-6" x="413.16" y="589.3" width="105.38" height="9.05"></rect>
              <rect class="cls-6" x="398.96" y="679.95" width="137.32" height="23.24"></rect>
              <rect class="cls-6" x="388.35" y="909.52" width="153.42" height="16.86"></rect>
              <rect class="cls-8" x="406.54" y="923.29" width="117.32" height="298.06"></rect>
              <rect class="cls-9" x="443.26" y="742.22" width="42.93" height="135.18"></rect>
              <rect class="cls-9" x="444.68" y="958.66" width="43.64" height="94.03"></rect>
              <g class="cls-7">
                <rect class="cls-9" x="443.99" y="607.5" width="42.39" height="59.6"></rect>
                <rect class="cls-11" x="445.81" y="609.31" width="38.76" height="55.97"></rect>
              </g>
              <rect class="cls-9" x="448.59" y="648.55" width="33.71" height="14.02"></rect>
              <path class="cls-9" d="M465.44,613.6c-11.42,8.19-15.98,18.65-16.85,30.34h33.71c-.78-12.13-6.02-22.4-16.85-30.34Z"></path>
            </g>
          </g>
          <g>
            <path class="cls-37" d="M620.75,1166.69c-176.6-18.85-304.48-177.28-285.63-353.88,18.61-174.39,173.36-301.26,347.29-286.25-29.83-10.74-61.39-18.15-94.32-21.67-221.73-23.66-420.66,136.9-444.32,358.63-23.66,221.73,136.9,420.66,358.63,444.32,204.72,21.85,389.99-113.36,435.84-308.75-60.06,111.76-183.54,181.89-317.49,167.59Z"></path>
            <g class="cls-19">
              <path class="cls-26" d="M620.75,1166.69c-176.6-18.85-304.48-177.28-285.63-353.88,18.61-174.39,173.36-301.26,347.29-286.25-29.83-10.74-61.39-18.15-94.32-21.67-221.73-23.66-420.66,136.9-444.32,358.63-23.66,221.73,136.9,420.66,358.63,444.32,204.72,21.85,389.99-113.36,435.84-308.75-60.06,111.76-183.54,181.89-317.49,167.59Z"></path>
              <ellipse class="cls-21" cx="597.42" cy="883.31" rx="366.52" ry="358.96" transform="translate(-344.3 1383.62) rotate(-83.91)"></ellipse>
              <ellipse class="cls-23" cx="599.52" cy="875.82" rx="358.84" ry="360.26" transform="translate(-334.97 1379.02) rotate(-83.91)"></ellipse>
            </g>
          </g>
          <g class="cls-32">
            <g>
              <rect class="cls-8" x="424.99" y="594.97" width="84.92" height="92.96"></rect>
              <g>
                <g>
                  <path class="cls-28" d="M506.76,533.56c-26.4-16.41-31.37-33.54-31.37-33.54l-7.59-16.82c-.44-1.18-.77-2.51-.25-2.99,0,0-.01,0-.02,0,.39-.38.68-.93.68-1.79,0-.71-.31-1.2-.71-1.56,0,0,0,0,0,0,0,0,0,0-.01,0-.29-.26-.61-.44-.93-.57-.1-.24.12-.48.33-.65.11-.06.21-.13.31-.21h0c.34-.27.6-.65.59-1.25-.09-.68-.45-1.1-.86-1.37,0-.03-.03-.06-.14-.09-.71-.48-.52-2.48-.52-2.48h0l.66-1.7-1.11-19.85h-.67s-1.13,19.89-1.13,19.89l.63,1.66s.43,2.24-.4,2.51c-.07.02-.09.04-.1.06-.57.3-1.11.79-1.05,1.57.04.49.28.82.58,1.05h0s.02,0,.02,0c.13.1.26.18.4.24.2.16.34.4.14.67-.63.31-1.31.88-1.47,1.94,0,.95.33,1.54.76,1.94-.01,0-.03-.03-.03-.03,0,0,.02,0,.04.03,0,0,0,0,0,0,.14.14.51.84-.5,3.3l-.54,1.19c-.09.18-.15.34-.25.53,0,0,0,0,.01,0l-6.65,14.74s-11.18,19.22-32.03,34.22c-2.03,1.46-4.02,3.01-5.76,4.82-21.53,22.4-1.32,42.69,2.19,45.91v5.24h89.97v-4.99c.33.13.48.21.48.21,0,0,24.75-19.68,6.4-42.97-2.79-3.55-6.28-6.51-10.11-8.89Z"></path>
                  <path class="cls-4" d="M466.01,448.71c3.04,0,5.68-1.72,7.04-4.26-.77.87-1.76,1.51-2.88,1.9l.58-4.37,3.89-2.09-3.93-1.84-.67-4.37c.12.04.24.06.36.1-1.27-.84-2.77-1.34-4.4-1.34-4.43,0-8.01,3.64-8.01,8.13s3.58,8.13,8.01,8.13ZM467.96,433.32c.73,0,1.42.14,2.08.36l-3,3.27-4.3-.62,2.07,3.87-1.99,3.99,4.28-.89,3.03,3.05c-.69.23-1.4.4-2.17.4-3.73,0-6.76-3.01-6.76-6.72s3.03-6.72,6.76-6.72Z"></path>
                </g>
                <g>
                  <path d="M418.12,592.1v-6.32c-3.38-3.25-11.58-12.38-11.96-24.47-.26-8.26,3.21-16.19,10.3-23.57,1.96-2.04,4.14-3.7,6.02-5.04,19.59-14.09,30.65-32.21,31.45-33.56l5.95-13.17-.07-.05.76-1.5.24-.51.51-1.14c.23-.57.36-.99.43-1.28l-.1-.05v-.49c-.51-.74-.78-1.65-.77-2.67v-.13s.02-.13.02-.13c.11-.73.39-1.4.8-1.96-.28-.45-.45-.96-.49-1.52-.1-1.27.5-2.4,1.65-3.15,0-.19-.03-.42-.06-.62l-.71-1.87,1.26-22.12,4.27.06,1.24,22.03-.7,1.8c0,.25,0,.52.03.71,0,0,.01.01.02.02.81.61,1.33,1.51,1.47,2.55l.02.12v.12c0,.65-.15,1.25-.46,1.78.57.7.87,1.55.87,2.48,0,1.07-.31,2.01-.91,2.77.03.21.12.62.36,1.27l7.62,16.88.04.13c.05.16,5.2,16.7,30.55,32.46,4.22,2.63,7.79,5.76,10.6,9.33,18.29,23.2-3.87,43.21-6.47,45.43v5.4h-93.78Z"></path>
                  <path d="M466.01,450.61c-5.46,0-9.91-4.5-9.91-10.03s4.45-10.03,9.91-10.03c1.94,0,3.82.57,5.45,1.66l-.72,1.37,1.18-.18.51,3.37,6.44,3.01-6.37,3.42-.08.56,2.29,1.59c-1.74,3.24-5.08,5.26-8.72,5.26Z"></path>
                </g>
                <g>
                  <path class="cls-29" d="M506.76,533.56c-26.4-16.41-31.37-33.54-31.37-33.54l-7.59-16.82c-.44-1.18-.77-2.51-.25-2.99,0,0-.01,0-.02,0,.39-.38.68-.93.68-1.79,0-.71-.31-1.2-.71-1.56,0,0,0,0,0,0,0,0,0,0-.01,0-.29-.26-.61-.44-.93-.57-.1-.24.12-.48.33-.65.11-.06.21-.13.31-.21h0c.34-.27.6-.65.59-1.25-.09-.68-.45-1.1-.86-1.37,0-.03-.03-.06-.14-.09-.71-.48-.52-2.48-.52-2.48h0l.66-1.7-1.11-19.85h-.67s-1.13,19.89-1.13,19.89l.63,1.66s.43,2.24-.4,2.51c-.07.02-.09.04-.1.06-.57.3-1.11.79-1.05,1.57.04.49.28.82.58,1.05h0s.02,0,.02,0c.13.1.26.18.4.24.2.16.34.4.14.67-.63.31-1.31.88-1.47,1.94,0,.95.33,1.54.76,1.94-.01,0-.03-.03-.03-.03,0,0,.02,0,.04.03,0,0,0,0,0,0,.14.14.51.84-.5,3.3l-.54,1.19c-.09.18-.15.34-.25.53,0,0,0,0,.01,0l-6.65,14.74s-11.18,19.22-32.03,34.22c-2.03,1.46-4.02,3.01-5.76,4.82-21.53,22.4-1.32,42.69,2.19,45.91v5.24h89.97v-4.99c.33.13.48.21.48.21,0,0,24.75-19.68,6.4-42.97-2.79-3.55-6.28-6.51-10.11-8.89Z"></path>
                  <path class="cls-5" d="M466.01,448.71c3.04,0,5.68-1.72,7.04-4.26-.77.87-1.76,1.51-2.88,1.9l.58-4.37,3.89-2.09-3.93-1.84-.67-4.37c.12.04.24.06.36.1-1.27-.84-2.77-1.34-4.4-1.34-4.43,0-8.01,3.64-8.01,8.13s3.58,8.13,8.01,8.13ZM467.96,433.32c.73,0,1.42.14,2.08.36l-3,3.27-4.3-.62,2.07,3.87-1.99,3.99,4.28-.89,3.03,3.05c-.69.23-1.4.4-2.17.4-3.73,0-6.76-3.01-6.76-6.72s3.03-6.72,6.76-6.72Z"></path>
                </g>
              </g>
              <rect class="cls-8" x="417.18" y="698.58" width="97.45" height="214.07"></rect>
              <rect class="cls-6" x="413.16" y="589.3" width="105.38" height="9.05"></rect>
              <rect class="cls-6" x="398.96" y="679.95" width="137.32" height="23.24"></rect>
              <rect class="cls-6" x="388.35" y="909.52" width="153.42" height="16.86"></rect>
              <rect class="cls-8" x="406.54" y="923.29" width="117.32" height="298.06"></rect>
              <rect class="cls-9" x="443.26" y="742.22" width="42.93" height="135.18"></rect>
              <rect class="cls-9" x="444.68" y="958.66" width="43.64" height="94.03"></rect>
              <g class="cls-7">
                <rect class="cls-9" x="443.99" y="607.5" width="42.39" height="59.6"></rect>
                <rect class="cls-11" x="445.81" y="609.31" width="38.76" height="55.97"></rect>
              </g>
              <rect class="cls-9" x="448.59" y="648.55" width="33.71" height="14.02"></rect>
              <path class="cls-9" d="M465.44,613.6c-11.42,8.19-15.98,18.65-16.85,30.34h33.71c-.78-12.13-6.02-22.4-16.85-30.34Z"></path>
            </g>
          </g>
        </g>
      </g>
    </g>
  </g>
</svg></svg><style>@media (prefers-color-scheme: light) { :root { filter: none; } }
@media (prefers-color-scheme: dark) { :root { filter: none; } }
</style></svg>